<?xml version="1.0" encoding="UTF-8"?>
<svg viewBox="0 0 287 246" version="1.1" xmlns="http://www.w3.org/2000/svg" xmlns:xlink="http://www.w3.org/1999/xlink">
    <g id="Page-1" stroke="none" stroke-width="1" fill="none" fill-rule="evenodd">
        <g id="Mobile" transform="translate(-17.000000, -25.000000)">
            <g id="404" transform="translate(17.000000, 24.000000)">
                <g id="Tree-base" transform="translate(247.000000, 152.000000) rotate(-360.000000) translate(-247.000000, -152.000000) translate(223.000000, 86.000000)" fill-rule="nonzero">
                    <path d="M16.6307194,14.1347589 C15.7193413,12.0683154 15.2636522,10.4319109 15.2636522,9.22554552 C15.2636522,4.22688495 19.0952674,0.174669921 23.8218043,0.174669921 C28.5483411,0.174669921 32.3799563,4.22688495 32.3799563,9.22554552 C32.3799563,9.17633023 32.3791966,9.12784825 32.3776773,9.08009959 C32.4991663,12.8982395 33.7761912,16.581463 36.0297352,19.6134457 C38.6100212,23.0850364 39.9001642,26.2815196 39.9001642,29.2028951 C39.9001642,30.4259447 39.6582678,31.7918363 39.1744751,33.30057 C37.5669061,38.3138605 38.1373349,43.7988831 40.739225,48.3465993 C42.8253935,51.992911 43.8684778,55.2637909 43.8684778,58.1592388 C43.8684778,59.9482184 43.4522721,62.0095472 42.6198608,64.3432252 C40.8105005,69.4157945 41.2678745,75.0537329 43.8693803,79.7457496 C46.3709882,84.2575927 47.6217922,88.2299414 47.6217922,91.6627959 C47.6217922,105.563935 36.9661746,116.833035 23.8218043,116.833035 C10.6774339,116.833035 0.0218163088,105.563935 0.0218163088,91.6627959 C0.0218163088,88.2299415 1.2726203,84.2575927 3.77422828,79.7457496 C6.37573412,75.0537327 6.83310812,69.4157942 5.02374772,64.3432248 C4.19133637,62.0095469 3.7751307,59.9482183 3.7751307,58.1592388 C3.7751307,55.2320225 4.8399447,51.9283286 6.96957271,48.2481572 C9.59216434,43.7161042 10.1898936,38.2371035 8.60934782,33.2173913 C8.14408806,31.7397561 7.91145818,30.4015907 7.91145818,29.2028951 C7.91145818,24.8220327 10.8178786,19.7993206 16.6307194,14.1347589 Z" fill="#42B8B2"></path>
                    <path d="M23.8844478,76.2602551 L23.8844478,63.5727981 L15.2440895,51.9345078 C15.1577389,51.8181964 15.1791686,51.6517178 15.2919539,51.5626676 C15.4047393,51.4736174 15.5661708,51.495717 15.6525214,51.6120285 L24.34586,63.3216817 C24.3802207,63.3679645 24.3988404,63.4246313 24.3988404,63.4829213 L24.3988404,75.5673845 L32.5163407,64.6333674 C32.6026913,64.517056 32.7641228,64.4949563 32.8769082,64.5840066 C32.9896935,64.6730568 33.0111232,64.8395353 32.9247726,64.9558467 L24.3988404,76.4400087 L24.3988404,77.6328241 C24.3988404,77.7248371 24.3534075,77.805907 24.2844143,77.8534774 L24.2844143,89.0984721 L24.34586,89.1812376 C24.3802207,89.2275204 24.3988404,89.2841872 24.3988404,89.3424773 L24.3988404,98.7745677 L32.5163407,87.8405506 C32.6026913,87.7242391 32.7641228,87.7021395 32.8769082,87.7911897 C32.9896935,87.8802399 33.0111232,88.0467185 32.9247726,88.1630299 L24.3988404,99.6471919 L24.3988404,103.49238 C24.3988404,103.584393 24.3534075,103.665463 24.2844143,103.713033 L24.2844143,110.492727 C24.3091012,110.534171 24.3224621,110.582169 24.3224621,110.631562 L24.3224621,131.463678 C24.3224621,131.610165 24.2073114,131.728916 24.0652658,131.728916 C23.9232202,131.728916 23.8080695,131.610165 23.8080695,131.463678 L23.8080695,114.000251 C23.7839406,113.959852 23.7700217,113.912275 23.7700217,113.861346 L23.7700217,110.699237 L14.7389105,101.148172 C14.6397421,101.043294 14.6417931,100.875369 14.7434915,100.7731 C14.8451899,100.670831 15.0080247,100.672946 15.1071931,100.777824 L23.7700217,109.939403 L23.7700217,99.7114434 C23.7700217,99.6531534 23.7886414,99.5964866 23.8230021,99.5502038 L23.8844478,99.4674383 L23.8844478,90.8748168 C23.8154546,90.8272459 23.7700217,90.7461761 23.7700217,90.654163 L23.7700217,89.2782257 L15.2440895,77.7940637 C15.1577389,77.6777523 15.1791686,77.5112738 15.2919539,77.4222236 C15.4047393,77.3331733 15.5661708,77.355273 15.6525214,77.4715844 L23.7700217,88.4056015 L23.7700217,76.5042603 C23.7700217,76.4459702 23.7886414,76.3893034 23.8230021,76.3430206 L23.8844478,76.2602551 Z" id="Path" fill="#465197"></path>
                </g>
                <g id="Tree-base" transform="translate(205.000000, 157.500000) rotate(-360.000000) translate(-205.000000, -157.500000) translate(185.000000, 112.000000)" fill-rule="nonzero">
                    <path d="M12.2289414,12.8031676 C11.9153008,11.8352973 11.7454313,10.7996945 11.7454313,9.72323497 C11.7454313,4.35324058 15.9727767,0 21.1874714,0 C26.4021661,0 30.6295115,4.35324058 30.6295115,9.72323497 C30.6295115,11.2664543 30.2803909,12.7257039 29.6590462,14.021797 C33.5032287,17.0196793 35.9866433,21.7709486 35.9866433,27.1195246 C35.9866433,27.8871606 35.885568,28.7148748 35.6834173,29.602667 C34.3293351,35.549438 35.0776671,41.7840085 37.8001036,47.2373951 C39.2040217,50.0496214 39.9059807,52.6082563 39.9059807,54.9133 C39.9059807,66.2612127 30.9727226,75.4605135 19.9529903,75.4605135 C8.93325806,75.4605135 0,66.2612127 0,54.9133 C0,52.5752187 0.721290829,49.9814439 2.16387249,47.1319759 C4.91482281,41.698145 5.69908681,35.4730162 4.38238343,29.5224522 C4.19245387,28.6641055 4.09748909,27.8631296 4.09748909,27.1195246 C4.09748909,20.9746066 7.37545982,15.6181006 12.2289414,12.8031676 L12.2289414,12.8031676 Z" id="Path" fill="#CBF0EE"></path>
                    <path d="M20.0365472,63.1417622 L20.0365472,69.8591053 C20.0616672,69.9001686 20.0752624,69.9477248 20.0752624,69.9966639 L20.0752624,90.6371951 C20.0752624,90.7823344 19.9580915,90.8999931 19.8135539,90.8999931 C19.6690163,90.8999931 19.5518454,90.7823344 19.5518454,90.6371951 L19.5518454,73.3343725 C19.5272932,73.2943449 19.5131301,73.2472058 19.5131301,73.196745 L19.5131301,70.0637163 L10.3235784,60.6004891 C10.2226702,60.4965757 10.2247571,60.3301944 10.3282397,60.2288661 C10.4317223,60.1275377 10.5974139,60.1296334 10.6983221,60.2335468 L19.5131301,69.31087 L19.5131301,59.1769735 C19.5131301,59.1192195 19.5320764,59.0630738 19.56704,59.0172167 L19.6295637,58.9352124 L19.6295637,48.9924169 L10.8376201,37.4611595 C10.7497547,37.3459177 10.7715603,37.1809702 10.8863243,37.092739 C11.0010884,37.0045077 11.165352,37.0264041 11.2532175,37.1416459 L20.0990709,48.7436099 C20.1340344,48.789467 20.1529807,48.8456127 20.1529807,48.9033667 L20.1529807,58.2487138 L28.4128934,47.4152527 C28.5007588,47.3000109 28.6650225,47.2781145 28.7797865,47.3663457 C28.8945506,47.454577 28.9163562,47.6195245 28.8284907,47.7347663 L20.1529807,59.1133128 L20.1529807,62.9231382 C20.1529807,63.014305 20.1067508,63.0946293 20.0365472,63.1417622 L20.0365472,63.1417622 Z" id="Path" fill="#465197"></path>
                </g>
                <g id="Treebase" transform="translate(70.000000, 142.000000) rotate(-360.000000) translate(-70.000000, -142.000000) translate(46.000000, 76.000000)" fill-rule="nonzero">
                    <path d="M16.6307194,14.1347589 C15.7193413,12.0683154 15.2636522,10.4319109 15.2636522,9.22554552 C15.2636522,4.22688495 19.0952674,0.174669921 23.8218043,0.174669921 C28.5483411,0.174669921 32.3799563,4.22688495 32.3799563,9.22554552 C32.3799563,9.17633023 32.3791966,9.12784825 32.3776773,9.08009959 C32.4991663,12.8982395 33.7761912,16.581463 36.0297352,19.6134457 C38.6100212,23.0850364 39.9001642,26.2815196 39.9001642,29.2028951 C39.9001642,30.4259447 39.6582678,31.7918363 39.1744751,33.30057 C37.5669061,38.3138605 38.1373349,43.7988831 40.739225,48.3465993 C42.8253935,51.992911 43.8684778,55.2637909 43.8684778,58.1592388 C43.8684778,59.9482184 43.4522721,62.0095472 42.6198608,64.3432252 C40.8105005,69.4157945 41.2678745,75.0537329 43.8693803,79.7457496 C46.3709882,84.2575927 47.6217922,88.2299414 47.6217922,91.6627959 C47.6217922,105.563935 36.9661746,116.833035 23.8218043,116.833035 C10.6774339,116.833035 0.0218163088,105.563935 0.0218163088,91.6627959 C0.0218163088,88.2299415 1.2726203,84.2575927 3.77422828,79.7457496 C6.37573412,75.0537327 6.83310812,69.4157942 5.02374772,64.3432248 C4.19133637,62.0095469 3.7751307,59.9482183 3.7751307,58.1592388 C3.7751307,55.2320225 4.8399447,51.9283286 6.96957271,48.2481572 C9.59216434,43.7161042 10.1898936,38.2371035 8.60934782,33.2173913 C8.14408806,31.7397561 7.91145818,30.4015907 7.91145818,29.2028951 C7.91145818,24.8220327 10.8178786,19.7993206 16.6307194,14.1347589 Z" fill="#179A90"></path>
                    <path d="M23.8844478,76.2602551 L23.8844478,63.5727981 L15.2440895,51.9345078 C15.1577389,51.8181964 15.1791686,51.6517178 15.2919539,51.5626676 C15.4047393,51.4736174 15.5661708,51.495717 15.6525214,51.6120285 L24.34586,63.3216817 C24.3802207,63.3679645 24.3988404,63.4246313 24.3988404,63.4829213 L24.3988404,75.5673845 L32.5163407,64.6333674 C32.6026913,64.517056 32.7641228,64.4949563 32.8769082,64.5840066 C32.9896935,64.6730568 33.0111232,64.8395353 32.9247726,64.9558467 L24.3988404,76.4400087 L24.3988404,77.6328241 C24.3988404,77.7248371 24.3534075,77.805907 24.2844143,77.8534774 L24.2844143,89.0984721 L24.34586,89.1812376 C24.3802207,89.2275204 24.3988404,89.2841872 24.3988404,89.3424773 L24.3988404,98.7745677 L32.5163407,87.8405506 C32.6026913,87.7242391 32.7641228,87.7021395 32.8769082,87.7911897 C32.9896935,87.8802399 33.0111232,88.0467185 32.9247726,88.1630299 L24.3988404,99.6471919 L24.3988404,103.49238 C24.3988404,103.584393 24.3534075,103.665463 24.2844143,103.713033 L24.2844143,110.492727 C24.3091012,110.534171 24.3224621,110.582169 24.3224621,110.631562 L24.3224621,131.463678 C24.3224621,131.610165 24.2073114,131.728916 24.0652658,131.728916 C23.9232202,131.728916 23.8080695,131.610165 23.8080695,131.463678 L23.8080695,114.000251 C23.7839406,113.959852 23.7700217,113.912275 23.7700217,113.861346 L23.7700217,110.699237 L14.7389105,101.148172 C14.6397421,101.043294 14.6417931,100.875369 14.7434915,100.7731 C14.8451899,100.670831 15.0080247,100.672946 15.1071931,100.777824 L23.7700217,109.939403 L23.7700217,99.7114434 C23.7700217,99.6531534 23.7886414,99.5964866 23.8230021,99.5502038 L23.8844478,99.4674383 L23.8844478,90.8748168 C23.8154546,90.8272459 23.7700217,90.7461761 23.7700217,90.654163 L23.7700217,89.2782257 L15.2440895,77.7940637 C15.1577389,77.6777523 15.1791686,77.5112738 15.2919539,77.4222236 C15.4047393,77.3331733 15.5661708,77.355273 15.6525214,77.4715844 L23.7700217,88.4056015 L23.7700217,76.5042603 C23.7700217,76.4459702 23.7886414,76.3893034 23.8230021,76.3430206 L23.8844478,76.2602551 Z" id="Path" fill="#465197"></path>
                </g>
                <g id="Leaves-base" transform="translate(134.000000, 208.500000) rotate(-360.000000) translate(-134.000000, -208.500000) translate(28.000000, 199.000000)" fill-rule="nonzero">
                    <path d="M177.205424,14.2771876 C175.432547,11.6665061 172.836548,10.3611654 169.417427,10.3611654 C164.288745,10.3611654 166.76112,6.25094698 161.442487,6.25094698 C157.980123,6.25094698 157.980123,8.53865349 153.021319,7.11779588 C147.908586,5.65283267 153.021319,1.50320329 143.333809,1.0180324 C133.6463,0.532861509 136.061765,7.11779588 132.07279,7.11779588 C129.199908,7.11779588 129.014897,4.6177483 126.564207,4.41470093 C124.113516,4.21165356 123.778256,5.8702136 121.942062,5.66228322 C119.704878,5.40894494 120.549087,3.30526659 115.094403,3.30526659 C109.63972,3.30526659 111.494748,7.3689859 110.16509,7.81519944 C108.835431,8.26141298 107.125871,6.77124525 105.289676,8.53865349 C103.453482,10.3060617 106.634413,11.1377832 103.960018,11.1377832 C100.701459,11.1377832 98.9033336,12.1842514 98.5656427,14.2771876 C98.8056564,14.9178619 101.047001,15.2763242 105.289676,15.3525745 C111.65369,15.4669498 111.940129,14.4842897 119.83658,14.6594732 C127.733031,14.8346566 130.340608,17.1546378 141.680964,17.1546378 C153.021319,17.1546378 149.738791,16.0531832 158.396666,15.629815 C167.054541,15.2064467 173.688973,16.0819301 178.658123,15.9070555 C181.37993,15.8112695 180.895697,15.2679802 177.205424,14.2771876 Z" fill="#179A90"></path>
                    <path d="M206.576421,16.0990496 C204.803544,13.4883682 202.207545,12.1830274 198.788424,12.1830274 C193.659742,12.1830274 195.622571,13.7771604 190.303938,13.7771604 C184.985306,13.7771604 188.181072,5.00224248 175.249436,4.53799253 C162.3178,4.07374258 165.245342,9.64561225 161.256367,9.64561225 C157.267393,9.64561225 155.122558,6.91540578 150.2392,7.10819707 C145.355842,7.30098836 143.386001,13.4306097 141.423172,13.7771604 C139.460344,14.123711 140.916636,12.5642331 135.534686,12.5642331 C131.94672,12.5642331 129.414038,13.7425053 127.93664,16.0990496 C125.878254,17.3788914 128.014914,18.0188122 134.346619,18.0188122 C136.677663,18.0188122 143.097956,17.3952124 150.2392,17.2217458 C154.269286,17.1238517 161.626928,18.989154 170.880559,18.989154 C175.249436,18.989154 178.993254,18.1559136 187.532945,18.0188122 C196.072635,17.8817109 204.996584,18.4011216 209.820548,18.0188122 C213.13432,17.7561887 212.052945,17.1162679 206.576421,16.0990496 Z" fill="#65CDC4"></path>
                    <path d="M79.4844912,11.7221267 C77.7116136,9.11144529 75.1156144,7.80610457 71.6964935,7.80610457 C66.5678121,7.80610457 68.5306407,9.40023749 63.2120082,9.40023749 C57.8933756,9.40023749 61.0891419,0.625319616 48.157506,0.161069665 C35.2258701,-0.303180286 38.1534114,5.26868939 34.164437,5.26868939 C30.1754626,5.26868939 28.0306275,2.53848292 23.1472695,2.7312742 C18.2639115,2.92406549 16.2940708,9.05368685 14.3312421,9.40023749 C12.3684135,9.74678812 13.8247057,8.18731027 8.44275609,8.18731027 C4.85478967,8.18731027 2.32210749,9.36558242 0.844709553,11.7221267 C-1.21367636,13.0019685 0.922983406,13.6418894 7.25468885,13.6418894 C9.58573313,13.6418894 16.0060258,13.0182895 23.1472695,12.8448229 C27.1773558,12.7469288 34.5349981,14.6122311 43.7886293,14.6122311 C48.157506,14.6122311 51.9013241,13.7789907 60.4410146,13.6418894 C68.980705,13.504788 77.9046539,14.0241987 82.7286177,13.6418894 C86.0423902,13.3792659 84.9610147,12.739345 79.4844912,11.7221267 Z" fill="#42B8B2"></path>
                </g>
                <g id="Shadow" transform="translate(143.500000, 233.000000) rotate(-360.000000) translate(-143.500000, -233.000000) translate(0.000000, 230.000000)" fill="#179A90" fill-rule="nonzero">
                    <ellipse id="Oval-8" cx="9.52788534" cy="0.766464112" rx="9.50369777" ry="1"></ellipse>
                    <ellipse id="Oval-8" cx="277.473795" cy="5.38345233" rx="9.50369777" ry="1"></ellipse>
                </g>
                <g id="Tree-base" transform="translate(27.000000, 184.500000) rotate(-360.000000) translate(-27.000000, -184.500000) translate(7.000000, 140.000000)" fill-rule="nonzero">
                    <path d="M19.7317609,8.1244187 C20.4919381,3.51137983 24.3695422,0 29.038727,0 C34.2534217,0 38.4807671,4.3797917 38.4807671,9.78253857 C38.4807671,13.0619833 36.9232274,15.9645265 34.5327533,17.7394319 C35.466102,19.8395529 35.9866433,22.1772561 35.9866433,24.6409226 C35.9866433,25.4132406 35.885568,26.2460031 35.6834173,27.1392101 C34.3293351,33.1222515 35.0776671,39.3948477 37.8001036,44.8814953 C39.2040217,47.7108738 39.9059807,50.2851143 39.9059807,52.6042169 C39.9059807,64.0213423 30.9727226,73.2767512 19.9529903,73.2767512 C8.93325806,73.2767512 0,64.0213423 0,52.6042169 C0,50.2518752 0.721290829,47.6422806 2.16387249,44.7754331 C4.91482281,39.3084604 5.69908681,33.0453636 4.38238343,27.0585061 C4.19245387,26.1949242 4.09748909,25.389063 4.09748909,24.6409226 C4.09748909,15.6248241 11.0690274,8.29573497 19.7317599,8.12441872 L19.7317609,8.1244187 Z" id="Path" fill="#65CDC4"></path>
                    <path d="M20.0365472,60.8828658 L20.0365472,67.6411791 C20.0616672,67.6824928 20.0752624,67.730339 20.0752624,67.7795766 L20.0752624,88.5459979 C20.0752624,88.6920224 19.9580915,88.8103987 19.8135539,88.8103987 C19.6690163,88.8103987 19.5518454,88.6920224 19.5518454,88.5459979 L19.5518454,71.1376425 C19.5272932,71.0973707 19.5131301,71.0499441 19.5131301,70.9991755 L19.5131301,67.847038 L10.3235784,58.326093 C10.2226702,58.2215458 10.2247571,58.0541497 10.3282397,57.9522034 C10.4317223,57.8502571 10.5974139,57.8523655 10.6983221,57.9569127 L19.5131301,67.0896 L19.5131301,56.8938951 C19.5131301,56.8357889 19.5320764,56.7793008 19.56704,56.733164 L19.6295637,56.6506595 L19.6295637,46.6472213 L10.8376201,35.0456329 C10.7497547,34.9296882 10.7715603,34.7637347 10.8863243,34.6749653 C11.0010884,34.5861959 11.165352,34.6082259 11.2532175,34.7241705 L20.0990709,46.3968968 C20.1340344,46.4430336 20.1529807,46.4995217 20.1529807,46.557628 L20.1529807,55.9599739 L28.4128934,45.0604377 C28.5007588,44.944493 28.6650225,44.9224631 28.7797865,45.0112325 C28.8945506,45.1000019 28.9163562,45.2659554 28.8284907,45.3819001 L20.1529807,56.8298462 L20.1529807,60.6629084 C20.1529807,60.7546312 20.1067508,60.8354454 20.0365472,60.8828658 L20.0365472,60.8828658 Z" id="Path" fill="#465197"></path>
                </g>
                <g id="Leaves" transform="translate(9.500000, 215.500000) rotate(-360.000000) translate(-9.500000, -215.500000) translate(2.000000, 200.000000)" fill-rule="nonzero">
                    <path d="M10.5724885,25.6964268 C10.3291854,25.2046794 10.5123601,24.5886711 10.9816207,24.3205338 C11.4508812,24.0523966 14.133167,23.0310697 14.3764701,23.5228171 C14.6197732,24.0145644 12.3319597,25.8331714 11.8626991,26.1013087 C11.3934386,26.369446 10.8157916,26.1881742 10.5724885,25.6964268 Z M11.0478817,22.5186411 C10.8045786,22.0268937 10.9877533,21.4108855 11.4570138,21.1427482 C11.9262743,20.8746109 14.6085601,19.853284 14.8518632,20.3450314 C15.0951663,20.8367788 12.8073528,22.6553858 12.3380923,22.923523 C11.8688317,23.1916603 11.2911848,23.0103885 11.0478817,22.5186411 Z M11.2159562,19.5487102 C10.9040662,19.1039194 10.9953151,18.4647012 11.4197663,18.1209764 C11.8442175,17.7772515 14.3448081,16.3175718 14.656698,16.7623626 C14.968588,17.2071533 12.9736708,19.3879814 12.5492197,19.7317062 C12.1247685,20.0754311 11.5278461,19.993501 11.2159562,19.5487102 Z M11.4480815,16.4702063 C11.0816242,16.0763914 11.0892032,15.4297466 11.4650095,15.0258847 C11.8408158,14.6220227 14.1280351,12.8025527 14.4944924,13.1963676 C14.8609496,13.5901825 13.167875,16.0481526 12.7920687,16.4520146 C12.4162623,16.8558765 11.8145388,16.8640212 11.4480815,16.4702063 Z M11.1825385,13.3361267 C10.7855369,12.9781336 10.7406433,12.3332396 11.0822659,11.8957156 C11.4238885,11.4581916 13.554843,9.43141903 13.9518447,9.78941212 C14.3488463,10.1474052 12.8615586,12.7545993 12.519936,13.1921233 C12.1783134,13.6296473 11.5795401,13.6941198 11.1825385,13.3361267 Z M10.9406964,10.3152096 C10.4874258,10.0452005 10.3288536,9.42136061 10.5865156,8.92182418 C10.8441776,8.42228775 12.5761192,5.99579253 13.0293899,6.26580162 C13.4826605,6.5358107 12.4856158,9.40007713 12.2279538,9.89961356 C11.9702919,10.39915 11.3939671,10.5852187 10.9406964,10.3152096 Z M10.3291002,7.55560539 C9.82624559,7.4208698 9.52283145,6.86239216 9.65140579,6.30821065 C9.77998012,5.75402915 10.8685118,2.92849075 11.3713664,3.06322634 C11.8742211,3.19796193 11.6009778,6.24194987 11.4724035,6.79613138 C11.3438292,7.35031288 10.8319549,7.69034098 10.3291002,7.55560539 Z M8.99070619,4.79522173 C8.47253628,4.78550181 8.0599958,4.31468665 8.06927124,3.74362663 C8.07854668,3.17256661 8.54772606,0.156299894 9.06589597,0.165996369 C9.58406588,0.175739723 9.95500592,3.20776553 9.94573048,3.77882555 C9.93645504,4.34988558 9.5088761,4.80494164 8.99070619,4.79522173 Z M7.61653088,5.02881759 C7.42919129,5.40745543 6.98441213,5.5470319 6.62308883,5.34057037 C6.26176553,5.13410884 4.50018478,3.73380981 4.68752437,3.35517198 C4.87486396,2.97653415 6.9401822,3.76293995 7.30150551,3.96940148 C7.66282881,4.17586301 7.80387047,4.65017976 7.61653088,5.02881759 Z M8.87181189,7.90417023 C8.64866958,8.25968962 8.19275078,8.34853857 7.85348875,8.1026199 C7.51422672,7.85670123 5.89849905,6.26619135 6.12164136,5.91067196 C6.34478368,5.55515257 8.32229652,6.56925163 8.66155855,6.81517029 C9.00082058,7.06108896 9.09495421,7.54865084 8.87181189,7.90417023 Z M9.7707888,10.7328364 C9.55345412,11.0924867 9.09904766,11.189873 8.75584358,10.9503548 C8.4126395,10.7108365 6.771328,9.15087237 6.98866269,8.79122202 C7.20599737,8.43157168 9.19967801,9.40842743 9.5428821,9.64794568 C9.88608618,9.88746393 9.98812349,10.373186 9.7707888,10.7328364 Z M10.4220097,13.9295499 C10.1708835,14.2628164 9.70949381,14.3086248 9.39146707,14.0318659 C9.07344033,13.7551069 7.59285323,12.0193167 7.84397946,11.6860502 C8.09510569,11.3527836 9.98284886,12.5482421 10.3008756,12.8250011 C10.6189023,13.10176 10.6731359,13.5962833 10.4220097,13.9295499 Z M10.4434334,16.8601659 C10.2088815,17.2070998 9.75035507,17.2787954 9.41928594,17.0203026 C9.08821681,16.7618097 7.52512535,15.111671 7.75967726,14.7647371 C7.99422916,14.4178033 9.9376044,15.505451 10.2686735,15.7639438 C10.5997427,16.0224367 10.6779853,16.513232 10.4434334,16.8601659 Z M10.3712124,19.3036152 C10.1962833,19.6890485 9.75630783,19.8452214 9.38849977,19.652437 C9.02069172,19.4596527 7.21470924,18.1262746 7.38963841,17.7408412 C7.56456758,17.3554079 9.65416629,18.0638751 10.0219743,18.2566595 C10.3897824,18.4494438 10.5461416,18.9181819 10.3712124,19.3036152 Z M10.095867,21.680286 C9.95286259,22.0806369 9.52722718,22.2774246 9.14518371,22.1198236 C8.76314024,21.9622225 6.85589152,20.8030708 6.99889593,20.4027199 C7.14190035,20.002369 9.28100503,20.5124237 9.6630485,20.6700247 C10.045092,20.8276257 10.2388714,21.2799351 10.095867,21.680286 Z M9.80755118,24.8192057 C9.61409103,25.1942723 9.16711289,25.3254855 8.80919756,25.1122787 C8.45128223,24.8990719 6.71271065,23.4659471 6.9061708,23.0908806 C7.09963094,22.715814 9.15186339,23.5408357 9.50977872,23.7540426 C9.86769405,23.9672494 10.0010113,24.4441392 9.80755118,24.8192057 Z" id="Shape" fill="#42B8B2"></path>
                    <path d="M8.83380327,30.0525595 C11.540187,18.5349293 11.1613096,10.053739 7.72233109,4.605008 C7.6462685,4.48449413 7.67551662,4.32053418 7.7876586,4.23879318 C7.89980058,4.15705219 8.05237052,4.18848382 8.12843311,4.30899768 C11.661553,9.9068867 12.0468794,18.5324375 9.30957217,30.1816695 C9.27639616,30.3228575 9.1429972,30.4084108 9.01161724,30.372758 C8.88023729,30.3371053 8.80062726,30.1937475 8.83380327,30.0525595 Z" id="Leaves-base" fill="#465197"></path>
                    <path d="M9.72919617,24.8581805 C9.34688345,24.4882459 9.32524727,23.844274 9.6808704,23.4198291 C10.0364935,22.9953841 12.2296825,21.0475544 12.6119952,21.417489 C12.9943079,21.7874237 11.4209703,24.3350359 11.0653472,24.7594809 C10.7097241,25.1839258 10.1115089,25.2281152 9.72919617,24.8581805 Z M9.41642962,21.7892009 C8.98992917,21.4800462 8.88510598,20.8455774 9.18230047,20.3720751 C9.47949497,19.8985728 11.3990863,17.6416793 11.8255867,17.9508339 C12.2520872,18.2599885 11.0239897,21.0181207 10.7267952,21.491623 C10.4296007,21.9651253 9.84293007,22.0983555 9.41642962,21.7892009 Z M8.60825368,18.7679958 C8.15830339,18.4999646 8.00242291,17.8777281 8.26008489,17.3781917 C8.51774687,16.8786552 10.2469968,14.4505566 10.6969471,14.7185878 C11.1468974,14.986619 10.147161,17.849282 9.88949904,18.3488184 C9.63183706,18.8483548 9.05820398,19.0360269 8.60825368,18.7679958 Z M7.84468793,15.8531318 C7.35541452,15.6822891 7.09191754,15.1034487 7.25615093,14.5602556 C7.42038433,14.0170625 8.68674489,11.2789858 9.17601829,11.4498285 C9.66529169,11.6206712 9.19220005,14.6357387 9.02796665,15.1789318 C8.86373326,15.7221249 8.33396133,16.0239745 7.84468793,15.8531318 Z M6.84320354,12.8061996 C6.33070869,12.8543844 5.87769918,12.4322016 5.83137848,11.863228 C5.78505778,11.2942544 5.95521773,8.24209548 6.46771258,8.19391068 C6.98020744,8.14572588 7.64096581,11.1197618 7.68728651,11.6887354 C7.73360721,12.257709 7.35569839,12.7580148 6.84320354,12.8061996 Z M4.91636622,10.2530895 C4.45397938,10.4954468 3.89027212,10.275769 3.65729081,9.76242547 C3.42430951,9.24908194 2.56535568,6.33411386 3.02774252,6.0917566 C3.49012936,5.84939933 5.09876039,8.37142864 5.3317417,8.88477218 C5.564723,9.39811571 5.37875306,10.0107322 4.91636622,10.2530895 Z M3.49013534,11.1063053 C3.44186041,11.5288247 3.07345703,11.8278971 2.66728337,11.7743021 C2.26110972,11.7207071 0.149282037,11.0943659 0.197556971,10.6718464 C0.245831906,10.2493269 2.43592872,10.1906287 2.84210238,10.2442237 C3.24827603,10.2978188 3.53841027,10.6837858 3.49013534,11.1063053 Z M5.41979858,13.9138261 C5.265022,14.3056781 4.83418108,14.4840383 4.45748845,14.3122048 C4.08079582,14.1403713 2.2114266,12.9127387 2.36620317,12.5208867 C2.52097975,12.1290346 4.64129138,12.7213496 5.01798401,12.8931831 C5.39467664,13.0650166 5.57457515,13.521974 5.41979858,13.9138261 Z M6.7929622,16.5050984 C6.64457288,16.8997936 6.21669416,17.0862073 5.83726832,16.9214649 C5.45784248,16.7567226 3.56882119,15.5643375 3.71721051,15.1696422 C3.86559983,14.774947 5.99520773,15.3274047 6.37463357,15.492147 C6.75405941,15.6568894 6.94135152,16.1104031 6.7929622,16.5050984 Z M7.98882221,19.5085112 C7.80285494,19.8843753 7.35918828,20.0217033 6.99786498,19.8152418 C6.63654167,19.6087803 4.87384843,18.2107297 5.0598157,17.8348656 C5.24578297,17.4590014 7.30998872,18.2476557 7.67131202,18.4541172 C8.03263533,18.6605787 8.17478948,19.132647 7.98882221,19.5085112 Z M8.52479111,22.3803825 C8.35738339,22.7661909 7.92101266,22.9282839 7.55012981,22.7424272 C7.17924695,22.5565706 5.35088398,21.2595753 5.5182917,20.8737668 C5.68569942,20.4879584 7.78548393,21.1594346 8.15636678,21.3452913 C8.52724964,21.5311479 8.69219883,21.994574 8.52479111,22.3803825 Z M8.88422005,24.7934169 C8.78169654,25.2046043 8.37814708,25.4456666 7.9828671,25.3318447 C7.58758712,25.2180227 5.57742592,24.2819257 5.67994942,23.8707383 C5.78247293,23.4595509 7.95885757,23.7289814 8.35413756,23.8428034 C8.74941754,23.9566253 8.98674356,24.3822295 8.88422005,24.7934169 Z" id="Shape" fill="#9DE1DB"></path>
                    <path d="M8.82572854,30.4063388 C9.72609755,22.0434494 8.01746641,15.552769 3.70660955,10.9104584 C3.61089326,10.8073827 3.61105455,10.6404372 3.70696979,10.5375753 C3.80288503,10.4347134 3.95823307,10.4348867 4.05394936,10.5379624 C8.47887971,15.3031174 10.2296985,21.9540587 9.31318023,30.4669473 C9.29760632,30.6116023 9.1758614,30.7153007 9.04125533,30.6985641 C8.90664926,30.6818275 8.81015463,30.5509938 8.82572854,30.4063388 Z" id="Leaves-base" fill="#465197"></path>
                </g>
                <g id="Leaves-Copy" transform="translate(275.500000, 218.500000) rotate(-360.000000) translate(-275.500000, -218.500000) translate(268.000000, 203.000000)" fill-rule="nonzero">
                    <path d="M10.5724885,25.6964268 C10.3291854,25.2046794 10.5123601,24.5886711 10.9816207,24.3205338 C11.4508812,24.0523966 14.133167,23.0310697 14.3764701,23.5228171 C14.6197732,24.0145644 12.3319597,25.8331714 11.8626991,26.1013087 C11.3934386,26.369446 10.8157916,26.1881742 10.5724885,25.6964268 Z M11.0478817,22.5186411 C10.8045786,22.0268937 10.9877533,21.4108855 11.4570138,21.1427482 C11.9262743,20.8746109 14.6085601,19.853284 14.8518632,20.3450314 C15.0951663,20.8367788 12.8073528,22.6553858 12.3380923,22.923523 C11.8688317,23.1916603 11.2911848,23.0103885 11.0478817,22.5186411 Z M11.2159562,19.5487102 C10.9040662,19.1039194 10.9953151,18.4647012 11.4197663,18.1209764 C11.8442175,17.7772515 14.3448081,16.3175718 14.656698,16.7623626 C14.968588,17.2071533 12.9736708,19.3879814 12.5492197,19.7317062 C12.1247685,20.0754311 11.5278461,19.993501 11.2159562,19.5487102 Z M11.4480815,16.4702063 C11.0816242,16.0763914 11.0892032,15.4297466 11.4650095,15.0258847 C11.8408158,14.6220227 14.1280351,12.8025527 14.4944924,13.1963676 C14.8609496,13.5901825 13.167875,16.0481526 12.7920687,16.4520146 C12.4162623,16.8558765 11.8145388,16.8640212 11.4480815,16.4702063 Z M11.1825385,13.3361267 C10.7855369,12.9781336 10.7406433,12.3332396 11.0822659,11.8957156 C11.4238885,11.4581916 13.554843,9.43141903 13.9518447,9.78941212 C14.3488463,10.1474052 12.8615586,12.7545993 12.519936,13.1921233 C12.1783134,13.6296473 11.5795401,13.6941198 11.1825385,13.3361267 Z M10.9406964,10.3152096 C10.4874258,10.0452005 10.3288536,9.42136061 10.5865156,8.92182418 C10.8441776,8.42228775 12.5761192,5.99579253 13.0293899,6.26580162 C13.4826605,6.5358107 12.4856158,9.40007713 12.2279538,9.89961356 C11.9702919,10.39915 11.3939671,10.5852187 10.9406964,10.3152096 Z M10.3291002,7.55560539 C9.82624559,7.4208698 9.52283145,6.86239216 9.65140579,6.30821065 C9.77998012,5.75402915 10.8685118,2.92849075 11.3713664,3.06322634 C11.8742211,3.19796193 11.6009778,6.24194987 11.4724035,6.79613138 C11.3438292,7.35031288 10.8319549,7.69034098 10.3291002,7.55560539 Z M8.99070619,4.79522173 C8.47253628,4.78550181 8.0599958,4.31468665 8.06927124,3.74362663 C8.07854668,3.17256661 8.54772606,0.156299894 9.06589597,0.165996369 C9.58406588,0.175739723 9.95500592,3.20776553 9.94573048,3.77882555 C9.93645504,4.34988558 9.5088761,4.80494164 8.99070619,4.79522173 Z M7.61653088,5.02881759 C7.42919129,5.40745543 6.98441213,5.5470319 6.62308883,5.34057037 C6.26176553,5.13410884 4.50018478,3.73380981 4.68752437,3.35517198 C4.87486396,2.97653415 6.9401822,3.76293995 7.30150551,3.96940148 C7.66282881,4.17586301 7.80387047,4.65017976 7.61653088,5.02881759 Z M8.87181189,7.90417023 C8.64866958,8.25968962 8.19275078,8.34853857 7.85348875,8.1026199 C7.51422672,7.85670123 5.89849905,6.26619135 6.12164136,5.91067196 C6.34478368,5.55515257 8.32229652,6.56925163 8.66155855,6.81517029 C9.00082058,7.06108896 9.09495421,7.54865084 8.87181189,7.90417023 Z M9.7707888,10.7328364 C9.55345412,11.0924867 9.09904766,11.189873 8.75584358,10.9503548 C8.4126395,10.7108365 6.771328,9.15087237 6.98866269,8.79122202 C7.20599737,8.43157168 9.19967801,9.40842743 9.5428821,9.64794568 C9.88608618,9.88746393 9.98812349,10.373186 9.7707888,10.7328364 Z M10.4220097,13.9295499 C10.1708835,14.2628164 9.70949381,14.3086248 9.39146707,14.0318659 C9.07344033,13.7551069 7.59285323,12.0193167 7.84397946,11.6860502 C8.09510569,11.3527836 9.98284886,12.5482421 10.3008756,12.8250011 C10.6189023,13.10176 10.6731359,13.5962833 10.4220097,13.9295499 Z M10.4434334,16.8601659 C10.2088815,17.2070998 9.75035507,17.2787954 9.41928594,17.0203026 C9.08821681,16.7618097 7.52512535,15.111671 7.75967726,14.7647371 C7.99422916,14.4178033 9.9376044,15.505451 10.2686735,15.7639438 C10.5997427,16.0224367 10.6779853,16.513232 10.4434334,16.8601659 Z M10.3712124,19.3036152 C10.1962833,19.6890485 9.75630783,19.8452214 9.38849977,19.652437 C9.02069172,19.4596527 7.21470924,18.1262746 7.38963841,17.7408412 C7.56456758,17.3554079 9.65416629,18.0638751 10.0219743,18.2566595 C10.3897824,18.4494438 10.5461416,18.9181819 10.3712124,19.3036152 Z M10.095867,21.680286 C9.95286259,22.0806369 9.52722718,22.2774246 9.14518371,22.1198236 C8.76314024,21.9622225 6.85589152,20.8030708 6.99889593,20.4027199 C7.14190035,20.002369 9.28100503,20.5124237 9.6630485,20.6700247 C10.045092,20.8276257 10.2388714,21.2799351 10.095867,21.680286 Z M9.80755118,24.8192057 C9.61409103,25.1942723 9.16711289,25.3254855 8.80919756,25.1122787 C8.45128223,24.8990719 6.71271065,23.4659471 6.9061708,23.0908806 C7.09963094,22.715814 9.15186339,23.5408357 9.50977872,23.7540426 C9.86769405,23.9672494 10.0010113,24.4441392 9.80755118,24.8192057 Z" id="Shape" fill="#179A90"></path>
                    <path d="M8.83380327,30.0525595 C11.540187,18.5349293 11.1613096,10.053739 7.72233109,4.605008 C7.6462685,4.48449413 7.67551662,4.32053418 7.7876586,4.23879318 C7.89980058,4.15705219 8.05237052,4.18848382 8.12843311,4.30899768 C11.661553,9.9068867 12.0468794,18.5324375 9.30957217,30.1816695 C9.27639616,30.3228575 9.1429972,30.4084108 9.01161724,30.372758 C8.88023729,30.3371053 8.80062726,30.1937475 8.83380327,30.0525595 Z" id="Leaves-base" fill="#465197"></path>
                    <path d="M9.72919617,24.8581805 C9.34688345,24.4882459 9.32524727,23.844274 9.6808704,23.4198291 C10.0364935,22.9953841 12.2296825,21.0475544 12.6119952,21.417489 C12.9943079,21.7874237 11.4209703,24.3350359 11.0653472,24.7594809 C10.7097241,25.1839258 10.1115089,25.2281152 9.72919617,24.8581805 Z M9.41642962,21.7892009 C8.98992917,21.4800462 8.88510598,20.8455774 9.18230047,20.3720751 C9.47949497,19.8985728 11.3990863,17.6416793 11.8255867,17.9508339 C12.2520872,18.2599885 11.0239897,21.0181207 10.7267952,21.491623 C10.4296007,21.9651253 9.84293007,22.0983555 9.41642962,21.7892009 Z M8.60825368,18.7679958 C8.15830339,18.4999646 8.00242291,17.8777281 8.26008489,17.3781917 C8.51774687,16.8786552 10.2469968,14.4505566 10.6969471,14.7185878 C11.1468974,14.986619 10.147161,17.849282 9.88949904,18.3488184 C9.63183706,18.8483548 9.05820398,19.0360269 8.60825368,18.7679958 Z M7.84468793,15.8531318 C7.35541452,15.6822891 7.09191754,15.1034487 7.25615093,14.5602556 C7.42038433,14.0170625 8.68674489,11.2789858 9.17601829,11.4498285 C9.66529169,11.6206712 9.19220005,14.6357387 9.02796665,15.1789318 C8.86373326,15.7221249 8.33396133,16.0239745 7.84468793,15.8531318 Z M6.84320354,12.8061996 C6.33070869,12.8543844 5.87769918,12.4322016 5.83137848,11.863228 C5.78505778,11.2942544 5.95521773,8.24209548 6.46771258,8.19391068 C6.98020744,8.14572588 7.64096581,11.1197618 7.68728651,11.6887354 C7.73360721,12.257709 7.35569839,12.7580148 6.84320354,12.8061996 Z M4.91636622,10.2530895 C4.45397938,10.4954468 3.89027212,10.275769 3.65729081,9.76242547 C3.42430951,9.24908194 2.56535568,6.33411386 3.02774252,6.0917566 C3.49012936,5.84939933 5.09876039,8.37142864 5.3317417,8.88477218 C5.564723,9.39811571 5.37875306,10.0107322 4.91636622,10.2530895 Z M3.49013534,11.1063053 C3.44186041,11.5288247 3.07345703,11.8278971 2.66728337,11.7743021 C2.26110972,11.7207071 0.149282037,11.0943659 0.197556971,10.6718464 C0.245831906,10.2493269 2.43592872,10.1906287 2.84210238,10.2442237 C3.24827603,10.2978188 3.53841027,10.6837858 3.49013534,11.1063053 Z M5.41979858,13.9138261 C5.265022,14.3056781 4.83418108,14.4840383 4.45748845,14.3122048 C4.08079582,14.1403713 2.2114266,12.9127387 2.36620317,12.5208867 C2.52097975,12.1290346 4.64129138,12.7213496 5.01798401,12.8931831 C5.39467664,13.0650166 5.57457515,13.521974 5.41979858,13.9138261 Z M6.7929622,16.5050984 C6.64457288,16.8997936 6.21669416,17.0862073 5.83726832,16.9214649 C5.45784248,16.7567226 3.56882119,15.5643375 3.71721051,15.1696422 C3.86559983,14.774947 5.99520773,15.3274047 6.37463357,15.492147 C6.75405941,15.6568894 6.94135152,16.1104031 6.7929622,16.5050984 Z M7.98882221,19.5085112 C7.80285494,19.8843753 7.35918828,20.0217033 6.99786498,19.8152418 C6.63654167,19.6087803 4.87384843,18.2107297 5.0598157,17.8348656 C5.24578297,17.4590014 7.30998872,18.2476557 7.67131202,18.4541172 C8.03263533,18.6605787 8.17478948,19.132647 7.98882221,19.5085112 Z M8.52479111,22.3803825 C8.35738339,22.7661909 7.92101266,22.9282839 7.55012981,22.7424272 C7.17924695,22.5565706 5.35088398,21.2595753 5.5182917,20.8737668 C5.68569942,20.4879584 7.78548393,21.1594346 8.15636678,21.3452913 C8.52724964,21.5311479 8.69219883,21.994574 8.52479111,22.3803825 Z M8.88422005,24.7934169 C8.78169654,25.2046043 8.37814708,25.4456666 7.9828671,25.3318447 C7.58758712,25.2180227 5.57742592,24.2819257 5.67994942,23.8707383 C5.78247293,23.4595509 7.95885757,23.7289814 8.35413756,23.8428034 C8.74941754,23.9566253 8.98674356,24.3822295 8.88422005,24.7934169 Z" id="Shape" fill="#9DE1DB"></path>
                    <path d="M8.82572854,30.4063388 C9.72609755,22.0434494 8.01746641,15.552769 3.70660955,10.9104584 C3.61089326,10.8073827 3.61105455,10.6404372 3.70696979,10.5375753 C3.80288503,10.4347134 3.95823307,10.4348867 4.05394936,10.5379624 C8.47887971,15.3031174 10.2296985,21.9540587 9.31318023,30.4669473 C9.29760632,30.6116023 9.1758614,30.7153007 9.04125533,30.6985641 C8.90664926,30.6818275 8.81015463,30.5509938 8.82572854,30.4063388 Z" id="Leaves-base" fill="#465197"></path>
                </g>
                <path d="M171.214867,216.783397 C174.505112,220.089431 176.098584,221.851605 175.995283,222.069918 C175.840332,222.397388 172.620489,223.561225 171.058306,222.671529 C169.496123,221.781833 169.09459,218.699448 168.745503,217.941015 C168.396416,217.182582 167.150314,216.609951 166.07036,216.113671 C164.990405,215.61739 164.88494,214.771573 165.078629,214.362236 C165.272318,213.952899 166.008783,213.892657 167.697794,214.170477 C168.823801,214.355691 169.996159,215.226664 171.214867,216.783397 Z" id="Dog-base" fill="#EC961F" transform="translate(170.500000, 218.500000) rotate(-360.000000) translate(-170.500000, -218.500000) "></path>
                <path d="M184.743979,224 C185.271314,225.663472 185.750013,226.667029 186.180078,227.010672 C187.050719,227.706355 188.094604,228.722413 188.890475,228.846018 C189.643552,228.962976 190.655791,229.181976 190.935994,229.870903 C191.058806,230.172857 190.977107,230.815256 190.920389,231 C189.402277,230.860115 188.733699,230.75628 187.925723,230.393465 C186.962671,229.961016 184.499564,229.154156 184.499564,229.154156 C183.313229,228.034799 182.513102,227.231563 182.099185,226.744448 C181.685268,226.257334 182.566866,225.342518 184.743979,224 Z" id="Dog-base" fill="#EC961F" transform="translate(186.500000, 227.500000) rotate(-360.000000) translate(-186.500000, -227.500000) "></path>
                <path d="M194.313371,215.138141 C196.649352,218.329704 197.46201,220.630012 196.751343,222.039067 C195.685343,224.152648 192.64487,225.710662 191.220362,224.667332 C189.795854,223.624002 189.526843,221.311884 190.903053,219.536825 C192.279263,217.761767 192.309109,217.455091 192.813821,216.038193 C193.150295,215.093595 193.650145,214.793577 194.313371,215.138141 Z" id="Dog-base" fill="#EC961F" transform="translate(193.500000, 220.000000) rotate(-360.000000) translate(-193.500000, -220.000000) "></path>
                <path d="M172.798193,212.558776 C172.808301,211.100074 167.505326,209.590969 167.338349,209.128531 C167.171373,208.666093 171.634627,209.516164 173.016613,210.645694 C174.398598,211.775225 182.46682,220.271033 186.183108,216.354552 C189.899396,212.438071 193.57709,215.510571 195.496478,217.94857 C196.414429,219.051961 195.487823,220.344201 195.919612,220.739136 C196.351401,221.134071 197.734851,223.608121 197.980045,224.107324 C198.225239,224.606527 196.145408,226.220596 195.332029,226.126238 C193.461217,225.90921 190.982001,223.889569 189.584625,223.616696 C188.187249,223.343824 185.221513,226.46124 184.46569,227.065851 C183.961808,227.468926 183.117226,227.647865 181.931944,227.602669 C181.561447,228.154031 181.39109,228.471597 181.420871,228.555367 C181.653087,229.208566 182.21644,229.996453 183.110931,230.91903 C183.997397,231.335706 184.247862,232.029363 183.862325,233 C182.9864,232.972231 182.131277,232.762263 181.296955,232.370098 C180.045473,231.781849 180.264314,231.308786 180.295517,231.035488 C180.312015,230.89099 179.403915,230.602382 178.812171,228.450239 C178.709247,228.075911 178.740986,227.159519 178.907388,225.701063 C178.5163,225.517235 175.825276,223.100487 175.574811,222.406831 C175.324346,221.713174 173.00902,220.336911 172.654405,220.074239 C172.29979,219.811568 172.070408,219.895724 171.460479,220.18496 C170.85055,220.474196 169.260265,220.206636 168.801501,220.37495 C168.342736,220.543264 167.378614,222.009846 167.378614,222.009846 C167.378614,222.009846 165.960686,222.514061 165.906319,222.904003 C165.81377,223.567789 166.428564,224.624608 164.934336,224.500948 C163.617635,224.391981 163.989744,222.336696 164.281532,221.705945 C164.57332,221.075193 165.350226,221.248395 167.28332,217.069667 C169.216415,212.890939 171.157087,213.131219 172.798193,212.558776 Z" id="Dog-base" fill="#F5C16A" transform="translate(181.000000, 221.000000) rotate(-360.000000) translate(-181.000000, -221.000000) "></path>
                <path d="M183.233351,231.008926 C183.972626,231.20328 184.183487,231.529903 183.838757,231.946698 C183.777109,232.021234 183.586393,232.016539 183.536501,231.939257 L183.010292,231.124162 C182.960401,231.04688 183.101145,230.974169 183.233351,231.008926 Z" id="Dog-base" fill="#ED8B38" fill-rule="nonzero" transform="translate(183.500000, 231.500000) rotate(-360.000000) translate(-183.500000, -231.500000) "></path>
                <path d="M185.421142,216.726926 C187.564794,221.142555 188.73537,223.333941 188.932868,223.301083 C189.229117,223.251796 188.471135,224.164818 188.09448,223.973638 C187.717825,223.782458 183.578474,217.388871 184.035131,216.322906 L185.36571,216 L185.421142,216.726926 Z" id="Dog-base" fill="#F05E36" fill-rule="nonzero" transform="translate(186.500000, 220.000000) rotate(-360.000000) translate(-186.500000, -220.000000) "></path>
                <path d="M184.326281,231.013564 C185.073147,231.205508 185.193843,231.528712 184.714275,231.949644 C184.62525,232.027785 184.342679,232.011212 184.310852,231.925983 L184.0026,231.10053 C183.975061,231.026783 184.171917,230.973892 184.326281,231.013564 Z" id="Dog-base" fill="#ED8B38" fill-rule="nonzero" transform="translate(184.500000, 231.500000) rotate(-360.000000) translate(-184.500000, -231.500000) "></path>
                <path d="M191.602729,214.227607 C192.16456,214.656253 192.130474,215.255775 191.500472,216.026173 C190.55547,217.181769 190.317393,217.360201 189.447777,219.479611 C188.578161,221.599021 186.574527,222.498199 185.119907,221.727327 C183.665288,220.956456 183.654431,217.441547 184.931811,215.43502 C185.783398,214.097336 188.007037,213.694864 191.602729,214.227607 Z" id="Dog-base" fill="#EC961F" transform="translate(188.000000, 218.000000) rotate(-360.000000) translate(-188.000000, -218.000000) "></path>
                <path d="M196.085809,223.034319 C196.445946,222.868674 197.892377,223.34445 197.992042,223.570448 C198.091706,223.796445 197.22713,224.05953 196.972966,223.988046 C196.591719,223.88082 195.725671,223.199963 196.085809,223.034319 Z" id="Dog-base" fill="#1C2229" transform="translate(197.000000, 223.500000) rotate(-360.000000) translate(-197.000000, -223.500000) "></path>
                <path d="M193.110377,218.992445 C192.937329,218.944887 192.971486,218.685858 193.186669,218.413888 C193.401852,218.141919 193.716575,217.959997 193.889623,218.007555 C194.062671,218.055113 194.028514,218.314142 193.813331,218.586112 C193.598148,218.858081 193.283425,219.040003 193.110377,218.992445 Z" id="Dog-base" fill="#1C2229" transform="translate(193.500000, 218.500000) rotate(-360.000000) translate(-193.500000, -218.500000) "></path>
                <path d="M194.110377,218.992445 C193.937329,218.944887 193.971486,218.685858 194.186669,218.413888 C194.401852,218.141919 194.716575,217.959997 194.889623,218.007555 C195.062671,218.055113 195.028514,218.314142 194.813331,218.586112 C194.598148,218.858081 194.283425,219.040003 194.110377,218.992445 Z" id="Dog-base" fill="#1C2229" transform="translate(194.500000, 218.500000) rotate(-360.000000) translate(-194.500000, -218.500000) "></path>
                <path d="M192.573348,224 C192.574434,223.541276 192.516254,223.244542 192.398809,223.109799 C191.750087,222.365531 191,222.194924 191,222.194924 C191,222.194924 191.744156,221.652363 192.582982,222.377622 C193.142199,222.861129 193.138988,223.401921 192.573348,224 Z" id="Dog-base" fill="#DF4C32" fill-rule="nonzero" transform="translate(192.000000, 223.000000) rotate(-360.000000) translate(-192.000000, -223.000000) "></path>
                <path d="M179.478303,224.945535 C179.352343,225.046578 178.944374,224.995508 179.006368,224.886459 L179.468143,224.074194 C179.52445,223.975149 179.902507,223.975316 179.958187,224.07441 C180.085525,224.301031 179.921018,224.5904 179.478303,224.945535 Z M179.024355,224.866354 L179.49629,224.92543 L179.958065,224.113165 L179.468021,224.112948 C179.56886,224.29241 179.425518,224.544551 179.024355,224.866354 Z" id="Dog-base" fill="#ED8B38" fill-rule="nonzero" transform="translate(179.500000, 224.500000) rotate(-360.000000) translate(-179.500000, -224.500000) "></path>
                <path d="M182.22579,226.957268 C182.1237,227.06788 181.939877,226.943123 182.019435,226.817219 L183.762262,224.05912 C183.832623,223.947772 184.014791,224.005528 183.999039,224.13419 C183.913453,224.833273 183.321448,225.770147 182.22579,226.957268 Z M182.032777,226.799848 L182.239132,226.939896 L183.981959,224.181797 L183.745182,224.106727 C183.667075,224.744715 183.097196,225.646574 182.032777,226.799848 Z" id="Dog-base" fill="#ED8B38" fill-rule="nonzero" transform="translate(183.000000, 225.500000) rotate(-360.000000) translate(-183.000000, -225.500000) "></path>
                <path d="M172.130404,218.975175 C172.05978,219.052128 171.96453,218.934957 172.01341,218.831257 L172.852814,217.050447 C172.900358,216.949582 173.015072,217.012302 172.998349,217.130019 C172.897528,217.83972 172.607211,218.455632 172.130404,218.975175 Z M172.030732,218.805072 L172.147725,218.948989 L172.987129,217.16818 L172.841594,217.088608 C172.748302,217.745316 172.479016,218.316609 172.030732,218.805072 Z" id="Dog-base" fill="#ED8B38" fill-rule="nonzero" transform="translate(172.500000, 218.000000) rotate(-360.000000) translate(-172.500000, -218.000000) "></path>
                <path d="M189.009588,222.12405 C188.960299,222.02932 189.113262,221.953301 189.190515,222.034134 L189.976245,222.856275 C190.046003,222.929265 189.949704,223.030579 189.847999,222.991199 C189.52137,222.864728 189.243922,222.574423 189.009588,222.12405 Z M189.204836,222.054004 L189.02391,222.14392 L189.809641,222.96606 L189.937887,222.831136 C189.666817,222.726177 189.420445,222.468388 189.204836,222.054004 Z" id="Dog-base" fill="#ED8B38" fill-rule="nonzero" transform="translate(189.500000, 222.500000) rotate(-360.000000) translate(-189.500000, -222.500000) "></path>
                <path d="M164.936178,223.070894 C165.133349,223.539443 164.871235,223.861659 164.183617,223.996013 C164.06065,224.02004 163.956436,223.930765 164.018454,223.854526 L164.672567,223.050429 C164.734586,222.97419 164.900917,222.987103 164.936178,223.070894 Z" id="Dog-base" fill="#ED8B38" fill-rule="nonzero" transform="translate(164.500000, 223.500000) rotate(-360.000000) translate(-164.500000, -223.500000) "></path>
                <path d="M165.936178,223.070894 C166.133349,223.539443 165.871235,223.861659 165.183617,223.996013 C165.06065,224.02004 164.956436,223.930765 165.018454,223.854526 L165.672567,223.050429 C165.734586,222.97419 165.900917,222.987103 165.936178,223.070894 Z" id="Dog-base" fill="#ED8B38" fill-rule="nonzero" transform="translate(165.500000, 223.500000) rotate(-360.000000) translate(-165.500000, -223.500000) "></path>
                <g id="Foot" transform="translate(135.500000, 95.500000) rotate(-360.000000) translate(-135.500000, -95.500000) translate(122.000000, 64.000000)" fill-rule="nonzero">
                    <path d="M11.5205917,33.6482137 C9.98091776,35.6746053 7.70920128,38.6189721 5.96393864,34.9213901 C4.21867601,31.2238082 8.63609455,14.0064793 7.10496296,8.96571348 C6.82368502,7.19234039 9.26987777,6.01117875 10.12049,8.28180605 C10.3112309,11.0540291 10.0532545,20.2845859 11.5911864,23.9094161 C13.8672269,29.273932 12.3906271,32.5031449 11.5205917,33.6482137 Z" id="Leg" fill="#FFAA83"></path>
                    <g id="Shoes-base" transform="translate(0.000000, 3.707076)">
                        <path d="M10.6505389,2.49642068 C11.9579473,3.14037075 11.8932608,4.9337927 10.4168745,6.59466554 C10.0438741,7.01427532 9.63458931,5.68997034 8.83751891,5.4908246 C8.34728097,5.36834007 7.55698806,6.51794676 6.99299251,6.25064813 C4.84440119,5.23235021 2.40007511,3.40985557 1.48470222,2.66239245 C-0.0616215808,1.39971574 -0.090174316,0.821069669 1.07426009,0.285452552 C2.23869449,-0.250164565 9.34313047,1.8524706 10.6505389,2.49642068 Z" fill="#445A65"></path>
                        <path d="M5.62954156,4.59823171 C5.69697916,4.46956419 5.8528524,4.42160285 5.97769418,4.49110705 C6.10253596,4.56061126 6.14907124,4.72126118 6.08163364,4.8499287 L5.53060827,5.90125711 C5.46317067,6.02992463 5.30729744,6.07788597 5.18245566,6.00838176 C5.05761388,5.93887756 5.0110786,5.77822764 5.0785162,5.64956012 L5.62954156,4.59823171 Z" fill="#FFFFFF"></path>
                        <path d="M4.38544653,3.89275979 C4.45288413,3.76409227 4.60875736,3.71613093 4.73359914,3.78563514 C4.85844092,3.85513934 4.9049762,4.01578926 4.8375386,4.14445678 L4.28651324,5.19578519 C4.21907564,5.32445271 4.0632024,5.37241405 3.93836062,5.30290985 C3.81351885,5.23340564 3.76698356,5.07275572 3.83442116,4.9440882 L4.38544653,3.89275979 Z" fill="#FFFFFF"></path>
                        <path d="M4.98041133,4.22066671 C5.04784893,4.0919992 5.20372216,4.04403786 5.32856394,4.11354206 C5.45340572,4.18304626 5.499941,4.34369619 5.4325034,4.4723637 L4.88147804,5.52369212 C4.81404044,5.65235963 4.6581672,5.70032097 4.53332542,5.63081677 C4.40848364,5.56131257 4.36194836,5.40066264 4.42938596,5.27199513 L4.98041133,4.22066671 Z" fill="#FFFFFF"></path>
                        <path d="M10.1557124,2.44658197 C10.2320486,2.32330856 10.3908928,2.2871548 10.5105008,2.36583029 C10.6301089,2.44450577 10.6651877,2.60821769 10.5888515,2.7314911 C10.0659275,3.5759481 10.234207,4.24244017 11.1390691,4.84914567 C11.258007,4.92889297 11.2916995,5.09291389 11.2143234,5.21549665 C11.1369473,5.33807941 10.9778033,5.37280441 10.8588653,5.29305711 C9.72520521,4.53294366 9.47569458,3.54472583 10.1557124,2.44658197 Z" fill="#FFFFFF"></path>
                        <path d="M3.12937437,0.741236028 C3.14982331,0.596522575 3.28022575,0.496294291 3.42063637,0.517369889 C3.56104698,0.538445488 3.65829513,0.672844069 3.63784618,0.817557522 C3.42351636,2.33433044 2.73719683,3.04591119 1.62852229,2.80258888 C1.4897421,2.77213061 1.40119568,2.63148809 1.43074832,2.48845502 C1.46030097,2.34542196 1.59676169,2.25416206 1.73554188,2.28462033 C2.50500027,2.45349441 2.95306621,1.9889366 3.12937437,0.741236028 Z" fill="#FFFFFF"></path>
                        <path d="M2.58283925,2.65438526 C2.45965628,2.58180522 2.41688504,2.42004778 2.48730702,2.2930899 C2.55772899,2.16613203 2.71467682,2.12205008 2.83785979,2.19463011 C4.78918831,3.34436284 6.11410547,3.92845964 6.76588138,3.94492375 C7.09093145,3.95313465 7.39642275,3.84341503 8.02752003,3.53162813 C8.05757718,3.51677236 8.05757718,3.51677236 8.08772761,3.50186342 C9.04196585,3.03009671 9.48603214,2.90868864 10.0384911,3.14611948 C10.169453,3.20240313 10.2313484,3.35744909 10.1767383,3.49242433 C10.1221281,3.62739957 9.97169221,3.6911917 9.84073026,3.63490805 C9.47833784,3.47916229 9.12789616,3.57497332 8.30996397,3.97935156 C8.27986107,3.994237 8.27986107,3.994237 8.24962791,4.00917977 C7.54393664,4.35781904 7.18885481,4.48534948 6.7532914,4.47434698 C5.98482561,4.45493524 4.61025152,3.84894692 2.58283925,2.65438526 Z" fill="#FFFFFF"></path>
                        <path d="M7.47579782,5.90622053 C7.44371169,5.92691428 7.838002,5.66727014 7.96335056,5.5897417 C8.32028581,5.36897623 8.58801569,5.24538977 8.81998814,5.22899953 C9.25474888,5.19828108 9.76083394,5.61420998 10.4122057,6.45717412 C10.5006007,6.57156931 10.4822807,6.73815917 10.3712869,6.82926298 C10.2602931,6.9203668 10.0986565,6.90148541 10.0102616,6.78709022 C9.46387405,6.07999009 9.05417664,5.74327794 8.85513174,5.75734165 C8.7314807,5.76607834 8.51602994,5.86553229 8.22775341,6.04383215 C8.10973062,6.11682958 7.72171123,6.37234426 7.74837063,6.35515044 C7.4891589,6.52232746 7.42324987,6.55680425 7.2861976,6.52672521 L6.83800679,6.42836016 C6.6992266,6.39790188 6.61068018,6.25725936 6.64023282,6.1142263 C6.66978547,5.97119323 6.80624619,5.87993333 6.94502638,5.91039161 L7.33011183,5.99490684 C7.36408398,5.97660336 7.41124896,5.94785092 7.47579782,5.90622053 Z" fill="#FFFFFF"></path>
                    </g>
                    <path d="M22.2605518,33.4286148 C20.5237947,35.278034 17.9659039,37.9615353 16.6052125,34.0961889 C15.244521,30.2308426 21.7360363,13.3300072 20.7245292,8.1519038 C20.6246485,6.35794288 22.9862442,6.01544816 23.6019087,8.36527463 C23.5104445,11.14286 22.1565981,19.9801156 23.3184731,23.7507727 C25.0379735,29.3311029 23.2419544,32.3835493 22.2605518,33.4286148 Z" id="Leg" fill="#FFAA83"></path>
                    <g id="Shoes-base" transform="translate(17.470420, 0.000000)">
                        <path d="M8.34412797,7.23666674 C9.12177794,8.49681955 8.14480969,9.98239858 6.03880385,10.5845577 C5.50673382,10.7366897 5.84054912,9.39008099 5.26698843,8.78586907 C4.91422008,8.41424868 3.65292857,8.95754528 3.31206826,8.42283224 C2.01353049,6.38579526 0.877683545,3.50524275 0.485721119,2.3714194 C-0.176414318,0.456070984 0.0968899351,-0.050243037 1.35978077,0.131493606 C2.6226716,0.313230249 7.566478,5.97651392 8.34412797,7.23666674 Z" fill="#445A65"></path>
                        <path d="M3.0054075,6.27684334 C3.12875389,6.20455872 3.28560184,6.24901668 3.35573719,6.37614298 C3.42587254,6.50326929 3.38273646,6.66492379 3.25939007,6.73720841 L2.25153999,7.3278383 C2.1281936,7.40012293 1.97134566,7.35566496 1.90121031,7.22853866 C1.83107496,7.10141235 1.87421103,6.93975785 1.99755742,6.86747323 L3.0054075,6.27684334 Z" fill="#FFFFFF"></path>
                        <path d="M2.31308256,4.99909618 C2.43642896,4.92681155 2.5932769,4.97126952 2.66341225,5.09839582 C2.7335476,5.22552213 2.69041152,5.38717663 2.56706513,5.45946125 L1.55921505,6.05009114 C1.43586866,6.12237576 1.27902072,6.0779178 1.20888537,5.9507915 C1.13875002,5.82366519 1.18188609,5.66201069 1.30523249,5.58972607 L2.31308256,4.99909618 Z" fill="#FFFFFF"></path>
                        <path d="M2.64904375,5.60212209 C2.77239015,5.52983746 2.92923809,5.57429543 2.99937344,5.70142173 C3.06950879,5.82854804 3.02637272,5.99020254 2.90302632,6.06248716 L1.89517625,6.65311705 C1.77182985,6.72540167 1.61498191,6.68094371 1.54484656,6.5538174 C1.47471121,6.4266911 1.51784728,6.2650366 1.64119368,6.19275198 L2.64904375,5.60212209 Z" fill="#FFFFFF"></path>
                        <path d="M7.95011652,6.92414744 C8.07823589,6.86129731 8.23153233,6.91739129 8.2925137,7.04943683 C8.35349507,7.18148238 8.29906896,7.33947654 8.1709496,7.40232666 C7.29329642,7.83286743 7.09332007,8.48999207 7.54874117,9.4987056 C7.60860316,9.63129411 7.55284256,9.78879319 7.42419637,9.85048963 C7.29555018,9.91218608 7.14273411,9.85471671 7.08287211,9.7221282 C6.51229595,8.45835735 6.80880388,7.48402876 7.95011652,6.92414744 Z" fill="#FFFFFF"></path>
                        <path d="M2.86826956,1.640438 C2.96001754,1.52888239 3.12213875,1.51510439 3.23037741,1.60966395 C3.33861607,1.70422352 3.35198441,1.87131288 3.26023643,1.98286848 C2.29860607,3.15210682 1.35070568,3.38072229 0.535603649,2.56886128 C0.433571889,2.46723522 0.430793433,2.29960322 0.529397793,2.19444473 C0.628002153,2.08928624 0.790649864,2.08642263 0.892681624,2.18804869 C1.45839056,2.75150825 2.07723041,2.6022559 2.86826956,1.640438 Z" fill="#FFFFFF"></path>
                        <path d="M1.42111114,2.96438577 C1.35396402,2.83555698 1.40086162,2.67501902 1.52585988,2.6058142 C1.65085813,2.53660937 1.80662274,2.58494414 1.87376986,2.71377293 C2.93744038,4.75453619 3.76071295,5.97349311 4.30498503,6.3434284 C4.57642139,6.52792048 4.89190646,6.60171964 5.58741657,6.68198847 C5.62054476,6.68580603 5.62054476,6.68580603 5.6537794,6.68962945 C6.70558426,6.81071389 7.14459736,6.95028458 7.49103098,7.45336747 C7.57315404,7.57262469 7.54592541,7.73791581 7.43021413,7.82255551 C7.31450284,7.90719522 7.15412641,7.87913217 7.07200334,7.75987495 C6.84475583,7.42987136 6.49830196,7.31972703 5.59673984,7.21593863 C5.56355758,7.21212125 5.56355758,7.21212125 5.5302354,7.20828133 C4.75251787,7.11852494 4.38581998,7.03274593 4.02209834,6.78552864 C3.38038319,6.34936244 2.52625497,5.08471991 1.42111114,2.96438577 Z" fill="#FFFFFF"></path>
                        <path d="M3.89860227,8.39442928 C3.86075174,8.39445447 4.32862827,8.38960874 4.47479212,8.39232107 C4.89099979,8.40004454 5.18159119,8.44146023 5.38674223,8.55425423 C5.77123454,8.76565178 5.9865638,9.39478213 6.10553751,10.4654085 C6.12168294,10.6106988 6.0204924,10.7419694 5.8795221,10.7586096 C5.7385518,10.7752498 5.61118434,10.6709583 5.5950389,10.525668 C5.49524068,9.62759891 5.32092247,9.11829109 5.14489178,9.02150774 C5.03553767,8.9613838 4.80168953,8.92805529 4.465542,8.92181747 C4.32792042,8.91926365 3.86748515,8.92403231 3.89893402,8.92401139 C3.59315379,8.92421486 3.51953308,8.91745606 3.41877169,8.81709532 L3.08925998,8.48889382 C2.98722822,8.38726776 2.98444976,8.21963576 3.08305412,8.11447727 C3.18165848,8.00931878 3.3443062,8.00645518 3.44633796,8.10808124 L3.72945434,8.39007189 C3.76767533,8.39310384 3.82245694,8.39447995 3.89860227,8.39442928 Z" fill="#FFFFFF"></path>
                    </g>
                    <g id="Pants-base" transform="translate(3.596851, 10.326853)">
                        <path d="M11.7082643,20.7485564 C11.9934202,16.4703477 12.9755136,6.11919297 16.1552258,3.2484279 C16.3662915,3.05786983 16.2230405,2.53943218 16.2392406,2.19495001 C16.1393599,0.40098909 19.1859979,0.0246641891 19.8016623,2.37449066 C19.7934042,2.62527196 19.5414013,3.35291837 19.8046483,3.47289315 C23.2094842,5.02464694 20.8282448,23.0881748 20.9001795,23.2869995 C22.780935,28.4853361 22.5061781,36.1359554 21.6982512,41.6032271 C21.0559353,45.9498029 19.1275126,49.4920272 17.7345745,50.0433917 C14.7491825,51.2250947 8.34350498,51.9947001 6.38295649,49.4985639 C5.760143,48.7056086 3.69758937,49.3171562 3.9261602,48.0554403 C3.66553444,47.6139268 3.75228091,46.0353958 3.53470564,45.434026 C1.82036727,40.6956601 0.106127598,23.146087 0.187098558,22.2918893 C0.700264389,16.8782805 -0.0601354264,5.23363754 3.01003724,2.64627077 C3.25320329,2.44134426 3.11336874,1.85158394 3.15481998,1.49699059 C3.29635147,-0.172974802 6.33911269,-0.24575471 6.77254744,1.08861011 C6.7899394,1.39991501 6.65964614,2.00858027 6.88172999,2.10814727 C10.4777823,3.72036769 9.79213268,12.7856054 9.06900155,20.0196965 C9.350164,20.560419 9.49280547,22.4772217 9.76527431,23.2303152 C10.4974764,25.2540938 10.9353044,29.0866099 11.7203946,31.8102757 C11.6417615,29.7407078 11.637718,26.053468 11.7082643,20.7485564 Z" fill="#3D4466"></path>
                        <path d="M6.57200487,1.9773789 C6.69813453,2.04436769 6.74769236,2.2040545 6.68269538,2.33404937 C6.6176984,2.46404424 6.46275964,2.51512075 6.33662998,2.44813196 C5.52239308,2.01568217 4.76190265,2.14902042 4.00022321,2.86866293 C3.89562969,2.96748395 3.73311159,2.96020606 3.63722887,2.85240731 C3.54134615,2.74460856 3.54840764,2.57711014 3.65300115,2.47828912 C4.56830654,1.61349925 5.55961961,1.43969043 6.57200487,1.9773789 Z" fill="#3E4EB8"></path>
                        <path d="M19.5659318,3.33712861 C19.6803882,3.4235617 19.705189,3.5892582 19.6213259,3.70722213 C19.5374628,3.82518605 19.376693,3.85074685 19.2622366,3.76431377 C18.2503827,3.00020082 17.4505241,2.97597497 16.776861,3.6547479 C16.6753997,3.75697882 16.5127386,3.75508216 16.4135474,3.65051159 C16.3143562,3.54594102 16.3161964,3.3782953 16.4176577,3.27606438 C17.2884347,2.39868244 18.3664592,2.43133329 19.5659318,3.33712861 Z" fill="#3E4EB8"></path>
                        <path d="M18.5772621,48.3743715 C17.9568506,45.4161216 7.11002025,43.073683 4.30233487,45.5188774 C4.19395486,45.6132648 4.18033653,45.7803327 4.27191749,45.892034 C4.36349845,46.0037353 4.52559885,46.0177709 4.63397886,45.9233835 C5.84613535,44.8677245 8.87296448,44.7299593 12.1909969,45.4465085 C15.3535035,46.129471 17.8487381,47.4072757 18.0750247,48.4862565 C18.1050022,48.6291956 18.2417335,48.7200244 18.3804225,48.6891282 C18.5191115,48.658232 18.6072396,48.5173106 18.5772621,48.3743715 Z" fill="#3E4EB8"></path>
                        <path d="M19.3625644,41.4659104 C19.5036421,41.4502671 19.6303126,41.5554565 19.6454908,41.7008575 C19.6606689,41.8462585 19.5586072,41.9768107 19.4175295,41.992454 C17.4783334,42.2074806 16.4428168,43.0250598 16.2351266,44.4598088 C16.214189,44.604448 16.0834489,44.7042079 15.9431103,44.6826287 C15.8027717,44.6610495 15.7059781,44.5263028 15.7269156,44.3816636 C15.9730464,42.6813626 17.2102138,41.7045725 19.3625644,41.4659104 Z" fill="#3E4EB8"></path>
                        <path d="M11.400931,32.178311 C11.4604083,32.0455387 11.6130571,31.9875989 11.7418816,32.0488989 C11.8707061,32.1101988 11.9269231,32.2675254 11.8674458,32.4002977 L10.7052122,34.9947744 C10.6838099,35.042551 10.6490808,35.0826718 10.6054571,35.1100162 C8.22811563,36.6001942 6.61148664,38.1582303 5.75143953,39.7775444 C5.68330833,39.9058232 5.52717858,39.9528899 5.40271396,39.8826709 C5.27824935,39.8124518 5.23258209,39.6515375 5.30071329,39.5232587 C6.20137762,37.8274696 7.85962648,36.2217478 10.2714416,34.6996922 L11.400931,32.178311 Z" fill="#3E4EB8"></path>
                    </g>
                </g>
                <g id="Hand" transform="translate(135.500000, 154.500000) rotate(-360.000000) translate(-135.500000, -154.500000) translate(115.000000, 136.000000)" fill="#FFAA83" fill-rule="nonzero">
                    <path d="M2.12757773,27.3696008 C1.2888684,19.1731077 1.06371334,14.2319534 1.45211255,12.5461379 C1.5403005,12.1633652 1.64825368,11.8306085 1.77361853,11.548446 C1.7801726,11.4601683 1.78863505,11.3689998 1.79903489,11.2749087 C2.09572526,8.59064501 10.1483683,1.15076977 11.586118,0.422011954 C13.0238677,-0.306745862 14.8655386,-0.217404069 14.5689398,2.46603074 C14.2940023,4.9534887 8.15246283,10.6690528 5.51812754,12.5560313 C6.3865264,16.0455611 4.27471737,26.7555567 4.09491663,27.8059837 C4.09272577,27.8187831 4.09039274,27.8313572 4.08791755,27.8437059 C4.31710383,28.1780373 4.39611862,28.663561 4.34246563,29.3016581 C4.32161934,29.5495837 4.81430894,30.926576 4.38787337,31.3246716 C3.96143779,31.7227672 3.91107442,30.178524 3.73065915,30.5668081 C3.3784143,31.3248986 2.28454098,33.6549095 1.9595214,33.594905 C1.63450182,33.5349005 2.80481361,31.1037965 2.68056351,31.0637477 C2.55279401,31.0225646 1.50534563,33.5722847 1.09449218,33.5185893 C0.683638736,33.464894 2.25693762,30.9775813 2.13530034,30.9000577 C2.01366305,30.8225341 0.846709596,33.0259762 0.482381452,32.9465187 C0.118053308,32.8670612 1.52796838,30.9521339 1.47401594,30.8308688 C1.4200635,30.7096036 0.177257723,32.2419192 0.0262807847,32.0034326 C-0.124696153,31.7649461 0.802827387,31.0783045 1.02841722,30.433089 C1.56046576,28.9113626 1.2539416,27.6864205 2.12757773,27.3696008 L2.12757773,27.3696008 Z" id="Path"></path>
                    <path d="M38.2710829,30.0832021 C37.6571262,27.2890345 35.8174577,18.9104843 36.4801068,15.8712422 C33.817336,14.0359464 27.5728533,8.42693936 27.2559434,5.94324872 C26.9142848,3.26559721 28.7541734,3.14289652 30.2039536,3.8454902 C31.6537338,4.54808389 39.8302049,11.8409059 40.1719691,14.5193845 C40.1839489,14.6132728 40.1939425,14.7042741 40.2019794,14.7924195 C40.3320679,15.0722674 40.4455978,15.4030172 40.5402063,15.7841336 C40.9576708,17.4658289 40.8142768,22.4258516 40.1100244,30.6642014 C40.5716001,31.2963439 39.9658734,32.28835 39.9395616,33.7819907 C39.9274718,34.4682915 40.5563953,35.454451 40.3331326,35.6209201 C40.1098699,35.7873891 39.4784893,33.8944109 39.3862657,33.9875464 C39.2940421,34.0806818 39.9493743,36.393039 39.5818199,36.3316552 C39.2142655,36.2702715 38.8853384,33.7789668 38.745023,33.806081 C38.6047075,33.8331953 39.2150129,36.7407139 38.8129152,36.6379675 C38.4108175,36.5352211 38.3129758,33.7651049 38.1794783,33.7560106 C38.0496581,33.7471668 38.303143,36.4522619 37.9790005,36.3873437 C37.6548581,36.3224255 37.4378423,33.7401511 37.3706482,32.9013451 C37.3362323,32.4717195 36.7562187,33.8946549 36.4955094,33.3643273 C36.2348002,32.8339997 37.1700343,31.7317926 37.2361441,31.4925773 C37.4533912,30.7064788 37.7867023,30.2330628 38.2710829,30.0832021 L38.2710829,30.0832021 Z" id="Path"></path>
                </g>
                <g id="Head-base" transform="translate(128.000000, 154.000000) rotate(-360.000000) translate(-128.000000, -154.000000) translate(117.000000, 142.000000)">
                    <path d="M17.417114,8.96787345 L13.268272,7.82613615 C14.4601642,4.78161367 15.0460711,2.53585541 15.0259927,1.08886139 C14.9958751,-1.08162965 18.6144956,0.384218732 19.1748347,2.2305987 C19.5483941,3.46151867 18.9624872,5.70727692 17.417114,8.96787345 Z" fill="#FFAA83" fill-rule="nonzero"></path>
                    <path d="M13.4938877,3.18623172 C16.5408853,4.02474782 19.3636653,10.7661272 18.5629836,13.8351089 C17.7623019,16.9040906 14.6431415,18.7122402 11.5961439,17.8737241 C8.54914636,17.035208 6.72814755,13.8675552 7.52882926,10.7985735 C8.32951096,7.72959182 10.4468901,2.34771563 13.4938877,3.18623172 Z" fill="#FFAA83" fill-rule="nonzero"></path>
                    <path d="M11.2374456,5.96478162 C10.9347428,5.73890858 10.9567821,5.17776604 11.2866718,4.71143469 C11.6165616,4.24510334 12.1293792,4.05017336 12.4320821,4.2760464 C12.7347849,4.50191944 12.7127456,5.06306197 12.3828558,5.52939333 C12.0529661,5.99572468 11.5401485,6.19065466 11.2374456,5.96478162 Z" fill="#F05E36"></path>
                    <path d="M11.2374456,5.96478162 C11.0821863,5.84892907 11.0123591,5.64487492 11.0256847,5.41065198 C11.0383394,5.18821991 12.0186023,5.91887795 11.8167887,6.00007838 C11.6037494,6.08579552 11.3928925,6.08077414 11.2374456,5.96478162 Z" fill="#FFFFFF"></path>
                    <path d="M11.9804505,11.6957013 L10.6111891,11.3188885 C10.4391131,11.2715342 10.3369956,11.089879 10.3831032,10.9131503 C10.4292109,10.7364216 10.6060836,10.6315429 10.7781596,10.6788972 L12.147421,11.05571 C12.319497,11.1030643 12.4216145,11.2847195 12.3755069,11.4614482 C12.3293993,11.6381769 12.1525265,11.7430556 11.9804505,11.6957013 Z" fill="#253238"></path>
                    <path d="M8.69209686,11.1035693 L7.32283544,10.7267565 C7.15075946,10.6794022 7.04864193,10.497747 7.09474955,10.3210183 C7.14085717,10.1442896 7.31772992,10.0394109 7.4898059,10.0867653 L8.85906732,10.4635781 C9.0311433,10.5109324 9.13326083,10.6925876 9.08715321,10.8693163 C9.04104559,11.046045 8.86417284,11.1509236 8.69209686,11.1035693 Z" fill="#253238"></path>
                    <path d="M11.5674981,10.2101781 C11.3955647,10.162863 11.2935317,9.98135824 11.3396012,9.80477591 L11.4399217,9.4202511 C11.4859912,9.24366877 11.6627174,9.13887696 11.8346509,9.18619206 C12.0065843,9.23350715 12.1086173,9.41501188 12.0625479,9.59159421 L11.9622273,9.97611902 C11.9161579,10.1527014 11.7394316,10.2574932 11.5674981,10.2101781 Z" fill="#1C2229"></path>
                    <path d="M8.27914446,9.61804611 C8.107211,9.57073101 8.00517804,9.38922629 8.05124747,9.21264395 L8.15156804,8.82811915 C8.19763747,8.65153681 8.37436373,8.54674501 8.5462972,8.59406011 C8.71823066,8.6413752 8.82026362,8.82287993 8.77419418,8.99946226 L8.67387362,9.38398707 C8.62780418,9.5605694 8.45107792,9.6653612 8.27914446,9.61804611 Z" fill="#1C2229"></path>
                    <path d="M10.1972602,7.82604938 C10.596189,8.29261524 10.4667586,9.16487819 9.88543599,10.4777189 C9.82756292,10.6084176 9.67748469,10.666186 9.55022687,10.6067481 C9.42296905,10.5473102 9.3667216,10.393174 9.42459466,10.2624753 C9.92623799,9.12957977 10.0315031,8.42017222 9.81685684,8.16913334 C9.54032126,7.84571201 9.28127995,7.65544115 9.04552436,7.59056258 C8.84573877,7.53558274 8.79100565,7.27106679 8.95175618,7.13739673 C9.44149218,6.73016297 9.89449289,6.50113658 10.316423,6.45886377 C10.6426715,6.42617721 11.0488127,6.53886986 11.3117443,6.72710724 C11.6851626,6.99444409 11.7250856,7.42024419 11.2844324,7.66677968 C11.1616668,7.73546427 11.0079316,7.688932 10.9410553,7.56284694 C10.8741789,7.43676188 10.9194862,7.27886988 11.0422518,7.21018528 C11.0534243,7.20393451 11.063038,7.19803856 11.071176,7.19261791 C11.059614,7.18240008 11.043554,7.16890838 11.0222416,7.15365047 C10.8569077,7.03528497 10.5705207,6.95582071 10.3655759,6.97635395 C10.1424961,6.99870412 9.88919559,7.10162251 9.60780598,7.28832508 C9.80547295,7.41744453 10.0015799,7.59719207 10.1972602,7.82604938 Z" fill="#ED5738" fill-rule="nonzero"></path>
                    <path d="M16.2906615,12.9894719 C16.1527641,13.013075 16.0223458,12.9173986 15.9993641,12.7757726 C15.9763824,12.6341467 16.06954,12.5002021 16.2074373,12.476599 C16.5519845,12.4176248 16.650437,12.1901474 16.508265,11.6345325 C16.4727322,11.4956684 16.553535,11.353513 16.6887432,11.3170193 C16.8239514,11.2805257 16.9623644,11.3635134 16.9978973,11.5023775 C17.2081816,12.3241789 16.970613,12.8730885 16.2906615,12.9894719 Z" fill="#ED5738" fill-rule="nonzero"></path>
                    <path d="M14.5156084,4.06550625 C14.417598,3.96312232 14.4189583,3.79852225 14.5186467,3.69786169 C14.6183352,3.59720114 14.7786019,3.59859821 14.8766123,3.70098214 C15.4882683,4.33993166 15.9013702,4.88088311 16.1170617,5.33182527 C16.1787016,5.46069457 16.1269517,5.61648388 16.0014752,5.67979043 C15.8759986,5.74309697 15.7243108,5.68994786 15.6626709,5.56107855 C15.4753465,5.16944315 15.0926111,4.66825611 14.5156084,4.06550625 Z" fill="#ED5738" fill-rule="nonzero"></path>
                    <path d="M20.831347,16.9457042 L21.5117917,17.2608623 C21.6392313,17.3198879 21.6959516,17.4738412 21.63848,17.6047266 C21.5810083,17.7356121 21.4311082,17.793866 21.3036685,17.7348404 L20.9885333,17.5888808 L21.2483332,17.8538932 C21.3475225,17.9550725 21.3480687,18.1196776 21.2495531,18.2215488 C21.1510375,18.3234201 20.990766,18.323981 20.8915766,18.2228016 L20.5028849,17.8263115 C20.4747668,17.882383 20.4451343,17.9386176 20.4139347,17.9950025 C19.403791,19.8205679 18.0426995,20.1776733 16.3306602,19.0663188 C16.7895395,21.570527 15.4462885,23.0529116 12.300907,23.5134726 C9.15552562,23.9740336 7.48140595,22.46155 7.27854802,18.9760219 C5.58704864,19.751038 4.14974994,19.7505343 2.96665193,18.9745107 L2.65637818,19.4951755 C2.58339996,19.617639 2.42757683,19.6561551 2.30833748,19.5812036 C2.18909812,19.5062521 2.15159607,19.3462157 2.22457429,19.2237523 L2.55690256,18.6660782 C2.32116965,18.4645886 2.0966403,18.228919 1.88331452,17.9590694 L0.572377118,18.8209854 C0.454637318,18.898397 0.298087955,18.8631238 0.222714329,18.7422004 C0.147340703,18.6212771 0.181685273,18.4604948 0.299425073,18.3830832 L1.58002628,17.5411127 C1.56655465,17.5209417 1.55313263,17.5006194 1.53976024,17.4801456 L0.662405265,17.7444892 C0.528259299,17.7849069 0.38761013,17.7059847 0.348256553,17.5682116 C0.308902975,17.4304385 0.385747389,17.2859863 0.519893355,17.2455687 L1.26275941,17.0217461 C1.0913465,16.7156767 0.929017642,16.3818937 0.775772824,16.0203968 C-1.33100956,11.050603 5.89847989,7.89556244 7.56006297,10.4792362 C7.33743569,11.3325579 7.51725261,12.433818 8.09951375,13.7830165 C8.65722535,12.8389906 9.5105931,12.2964332 10.659617,12.1553442 C11.4267908,12.0611427 12.5108493,12.7829542 13.9017985,12.7731976 C14.1242509,12.7716372 14.1081693,11.1571386 14.4194069,10.7892247 C14.6772194,10.4844646 14.8064229,10.8663716 14.9797705,10.9434335 C15.2484508,11.0628756 15.0740219,11.8610937 15.6496773,12.9798275 C16.2253326,14.0985613 18.402809,12.9143447 16.7123574,10.1855384 C17.3802393,7.62557338 19.4091574,8.80126639 20.1472576,9.55313975 C20.8853578,10.3050131 20.0487904,11.7210519 19.898517,12.2970441 C19.7678273,12.7979727 21.4003085,14.6660861 20.831347,16.9457042 L20.831347,16.9457042 Z" id="Path" fill="#253238"></path>
                </g>
                <g id="Body" transform="translate(135.500000, 135.500000) rotate(-360.000000) translate(-135.500000, -135.500000) translate(121.000000, 121.000000)" fill-rule="nonzero">
                    <path d="M19.7199706,25.2462908 C17.1357542,27.4806559 8.83550349,23.9105778 6.7187713,20.9245667 C4.60203911,17.9385556 9.67366824,11.0861858 8.74652766,2.47317628 C8.37231509,-1.00320747 19.8640433,-0.697985877 22.9176018,3.34247275 C23.9982851,4.77242937 20.6758263,5.50149532 22.5297865,11.5723633 C24.2262796,17.1275988 23.1049931,22.3195327 19.7199706,25.2462908 Z" fill="#FFAA83"></path>
                    <g id="Tees-base" transform="translate(0.000000, 4.739705)">
                        <path d="M23.1210193,14.4658414 C25.1198034,15.1218944 28.1591923,16.0988358 28.4202837,18.133064 C28.7550415,20.7412452 26.531202,24.3589744 24.3713197,23.0952116 C23.1833179,22.4001031 21.7408799,21.1159662 20.6276245,19.6671873 C20.34928,19.9636308 20.0471129,20.2440329 19.7199706,20.506586 C18.8065798,21.2396423 17.2348529,21.3108304 15.4793761,20.9672694 C15.6947936,20.0843044 15.8172187,17.7679468 14.0005604,16.8062023 C12.1839021,15.8444578 11.3883516,16.5320875 11.0486873,19.420138 C9.65544085,18.7322402 8.39446693,17.9080483 7.51047687,17.0749848 C6.53871165,18.213118 5.41680018,19.1923468 4.45751751,19.7766955 C2.31933168,21.0791751 0.0346628607,17.5020582 0.32527092,14.8882438 C0.599969975,12.4175196 4.98118623,11.4260316 6.64947442,10.7255292 C7.02055817,9.02289174 7.3209294,6.92847243 6.7187713,4.10684174 C6.67926176,3.92170541 7.579408,3.71891301 7.53033681,3.52744445 C7.35177626,2.83072731 6.20385239,3.00137967 6.47623514,2.4952642 C8.43391601,-1.14231038 20.6602248,-0.0195075316 23.3408178,3.52744445 C24.4215011,4.95740107 22.5923927,4.29636681 22.5923927,4.68623903 C22.5923927,4.97389275 23.2219344,5.11054804 23.3408178,5.65190118 C23.4597013,6.19325432 22.8614064,7.13685646 22.9666053,7.6797917 C23.4102611,9.9695153 23.517286,12.3186566 23.1210193,14.4658414 L23.1210193,14.4658414 Z" id="Path" fill="#F0C912"></path>
                        <path d="M15.9754526,19.1706505 C16.02664,19.3061387 15.9617278,19.4588057 15.8304671,19.5116417 C15.6992064,19.5644777 15.551303,19.4974748 15.5001156,19.3619866 C14.8647043,17.6801133 14.0976072,16.7784427 13.2199528,16.6182778 C12.3465545,16.4588897 11.797087,16.7264999 11.4966308,17.4389474 C11.4403981,17.5722876 11.2900916,17.6333274 11.1609118,17.5752835 C11.0317321,17.5172397 10.972597,17.3620922 11.0288297,17.228752 C11.4280871,16.2820252 12.213043,15.8997237 13.3087778,16.0996865 C14.4002565,16.2988726 15.2821053,17.3354262 15.9754526,19.1706505 Z" fill="#FFFFFF"></path>
                        <path d="M0.323180034,13.9577163 C0.351955141,13.8153559 0.48708701,13.7240281 0.625005512,13.7537299 C0.762924014,13.7834318 0.851402218,13.9229159 0.822627111,14.0652763 C0.228182695,17.0061995 1.16781868,18.8956641 3.67350154,19.8250523 C3.80608951,19.8742308 3.87495019,20.0250434 3.82730618,20.1619016 C3.77966217,20.2987598 3.63355528,20.3698383 3.50096732,20.3206598 C0.748212685,19.2996297 -0.321705239,17.1481879 0.323180034,13.9577163 Z" fill="#FFFFFF"></path>
                        <path d="M28.406641,17.2026406 C29.1053721,20.381009 28.0719934,22.5513972 25.3369215,23.6218613 C25.2051852,23.6734208 25.0578988,23.6049851 25.0079481,23.469006 C24.9579973,23.3330269 25.0242976,23.1809969 25.1560339,23.1294374 C27.6456211,22.1550521 28.5531672,20.2489481 27.9090886,17.3191815 C27.8779109,17.1773611 27.9640173,17.0363044 28.1014126,17.0041225 C28.2388079,16.9719407 28.3754633,17.0608202 28.406641,17.2026406 Z" fill="#FFFFFF"></path>
                        <path d="M20.1948564,13.301893 C21.4528058,13.6252684 22.3009628,13.9617129 22.753508,14.327065 C22.8644836,14.4166587 22.8840834,14.5821497 22.7972852,14.6966996 C22.710487,14.8112494 22.5501596,14.8314804 22.439184,14.7418867 C22.0584706,14.4345264 21.2645357,14.1195906 20.0715596,13.8129176 C19.9348472,13.7777736 19.8516208,13.6348869 19.8856683,13.4937714 C19.9197157,13.3526558 20.058144,13.266749 20.1948564,13.301893 Z" fill="#253238"></path>
                        <path d="M6.73455668,9.95372259 C6.79756385,9.82364969 6.95079607,9.77092723 7.07681042,9.83596368 C7.20282477,9.90100013 7.25390217,10.0591675 7.190895,10.1892404 C6.75262283,11.0940157 6.53507024,11.9548264 6.53507024,12.7730081 C6.53507024,12.918434 6.42085769,13.036325 6.27996936,13.036325 C6.13908104,13.036325 6.02486849,12.918434 6.02486849,12.7730081 C6.02486849,11.8684771 6.26248688,10.9282702 6.73455668,9.95372259 Z" fill="#253238"></path>
                        <path d="M7.89406519,3.12222249 C7.78502364,3.21431168 7.6243043,3.19772212 7.53508849,3.08516866 C7.44587268,2.97261521 7.46194461,2.80671956 7.57098616,2.71463037 C8.47148942,1.9541256 10.123345,1.71054602 12.5363934,1.95158786 C12.6766266,1.96559589 12.7793066,2.09429446 12.7657357,2.23904416 C12.7521647,2.38379385 12.6274818,2.48978091 12.4872486,2.47577288 C10.1968635,2.246984 8.6625222,2.47323514 7.89406519,3.12222249 Z" fill="#253238"></path>
                    </g>
                </g>
                <path d="M132.979932,224 C148.323127,224 176.915451,227.405576 177.958431,234.293769 C179.001411,241.181963 160.30549,247 134.54482,247 C108.859035,247 91,239.580389 91,234.293769 C91,229.00715 117.681339,224 132.979932,224 Z" id="404-base" fill="#667799" fill-rule="nonzero" transform="translate(134.500000, 235.500000) rotate(-360.000000) translate(-134.500000, -235.500000) "></path>
                <polygon id="404-base" fill="#667799" fill-rule="nonzero" transform="translate(47.000000, 233.500000) rotate(-360.000000) translate(-47.000000, -233.500000) " points="83.939997 230.072194 76.9154981 236.12223 88 236.12223 83.3589758 241.070765 71.169916 241.070765 66.6078094 245 42.5543059 245 48.7309651 241.070765 6 241.070765 14.786786 237.338813 71.4985551 222 87.5434187 222 42.024509 236.12223 56.5099377 236.12223 60.2314395 233.754825 71.9936272 230.072194"></polygon>
                <polygon id="404-base" fill="#667799" fill-rule="nonzero" transform="translate(216.000000, 233.500000) rotate(-360.000000) translate(-216.000000, -233.500000) " points="252.939997 230.072194 245.915498 236.12223 257 236.12223 252.358976 241.070765 240.169916 241.070765 235.607809 245 211.554306 245 217.730965 241.070765 175 241.070765 183.786786 237.338813 240.498555 222 256.543419 222 211.024509 236.12223 225.509938 236.12223 229.231439 233.754825 240.993627 230.072194"></polygon>
                <path d="M121.199981,25.530582 L91.5169121,233.772887 C91.4962453,233.917875 91.3643909,234.018303 91.2224071,233.997199 C91.0804232,233.976095 90.9820763,233.84145 91.0027431,233.696462 L120.71818,25.2270786 C120.736765,25.0966969 120.846239,25 120.975265,25 L148.51339,25 C148.642586,25 148.752151,25.0969454 148.770539,25.2275318 L174.921558,210.938959 C174.929277,210.993771 174.920005,211.049676 174.895043,211.098836 C174.006338,212.849035 173.803319,214.04939 173.81572,215.860901 C173.81663,215.993731 173.816872,216.038902 173.816872,216.102771 C173.816872,217.935395 174.790613,220.916832 176.403359,222.357846 C176.450464,222.399934 176.481105,222.457974 176.489647,222.521292 L177.997538,233.698469 C178.017119,233.843614 177.917768,233.977488 177.77563,233.997483 C177.633492,234.017479 177.502393,233.916025 177.482812,233.77088 L175.987966,222.690394 C174.289465,221.111755 173.297285,218.046478 173.297285,216.102771 C173.297285,216.040617 173.297046,215.996092 173.296146,215.86461 C173.283385,214.000592 173.493826,212.729537 174.395446,210.930577 L148.288282,25.530582 L121.199981,25.530582 Z" id="Ufo-base" fill="#465197" fill-rule="nonzero" transform="translate(134.500000, 129.500000) rotate(-360.000000) translate(-134.500000, -129.500000) "></path>
                <ellipse id="Ufo-base" fill="#546083" transform="translate(134.000000, 31.000000) rotate(-360.000000) translate(-134.000000, -31.000000) " cx="134" cy="31" rx="47" ry="12"></ellipse>
                <ellipse id="Ufo-base" fill="#F0C912" transform="translate(134.000000, 30.000000) rotate(-360.000000) translate(-134.000000, -30.000000) " cx="134" cy="30" rx="51" ry="12"></ellipse>
                <ellipse id="Ufo-base" fill="#667799" fill-rule="nonzero" transform="translate(134.000000, 27.000000) rotate(-360.000000) translate(-134.000000, -27.000000) " cx="134" cy="27" rx="51" ry="12"></ellipse>
                <path d="M157,21.9431892 C157,24.7275412 147.884511,26.1352347 135.497041,25.989763 C130.071804,25.9260519 124.780226,25.5370418 120.855179,24.9001725 C116.449293,24.1852835 114,23.2332081 114,21.9431892 C114,9.82430044 123.625878,0 135.5,0 C147.374122,0 157,9.82430044 157,21.9431892 Z" id="Ufo-base" fill-rule="nonzero" transform="translate(135.500000, 13.000000) rotate(-360.000000) translate(-135.500000, -13.000000) "></path>
                <path d="M156,22.4616583 C156,10.6087117 146.59798,1 135,1 C123.40202,1 114,10.6087117 114,22.4616583 C114,24.3081652 123.523255,25.8554615 135.002961,25.9904539 C146.897106,26.1303199 156,24.722684 156,22.4616583 Z" id="Path" fill="#E5E9FD" fill-rule="nonzero" transform="translate(135.000000, 13.500000) rotate(-360.000000) translate(-135.000000, -13.500000) "></path>
                <path d="M116.479922,115.235688 C116.49626,115.089834 116.625546,114.985092 116.76869,115.001739 C116.911835,115.018386 117.014631,115.15012 116.998293,115.295974 L105.520078,217.764312 C105.50374,217.910166 105.374454,218.014908 105.23131,217.998261 C105.088165,217.981614 104.985369,217.84988 105.001707,217.704026 L116.479922,115.235688 Z" id="Ufo-base" fill="#465197" fill-rule="nonzero" transform="translate(111.000000, 166.500000) rotate(-360.000000) translate(-111.000000, -166.500000) "></path>
                <path d="M146.002178,55.30395 C145.983949,55.1566203 146.082173,55.0215677 146.221567,55.0023015 C146.36096,54.9830353 146.488738,55.0868513 146.506966,55.234181 L152.997822,107.69605 C153.016051,107.84338 152.917827,107.978432 152.778433,107.997699 C152.63904,108.016965 152.511262,107.913149 152.493034,107.765819 L146.002178,55.30395 Z" id="Ufo-base" fill="#465197" fill-rule="nonzero" transform="translate(149.500000, 81.500000) rotate(-360.000000) translate(-149.500000, -81.500000) "></path>
                <path d="M157.001754,145.29187 C156.982201,145.145684 157.12838,145.015584 157.328254,145.001283 C157.528128,144.986982 157.706009,145.093896 157.725562,145.240082 L160.998246,169.70813 C161.017799,169.854316 160.87162,169.984416 160.671746,169.998717 C160.471872,170.013018 160.293991,169.906104 160.274438,169.759918 L157.001754,145.29187 Z" id="Ufo-base" fill="#465197" fill-rule="nonzero" transform="translate(159.000000, 157.500000) rotate(-360.000000) translate(-159.000000, -157.500000) "></path>
                <path d="M147.000103,200.280202 C146.996758,200.130602 147.075403,200.005284 147.175762,200.000144 C147.276121,199.995311 147.360191,200.112543 147.363536,200.262143 L147.999897,228.719798 C148.003242,228.869398 147.924597,228.994716 147.824238,228.999856 C147.723879,229.004689 147.639809,228.887457 147.636464,228.737857 L147.000103,200.280202 Z" id="Ufo-base" fill="#465197" fill-rule="nonzero" transform="translate(147.500000, 214.500000) rotate(-360.000000) translate(-147.500000, -214.500000) "></path>
                <path d="M125.467061,186.236277 C125.48061,186.093201 125.61064,185.987916 125.75749,186.001117 C125.90434,186.014318 126.012402,186.141006 125.998853,186.284082 L124.532939,201.763723 C124.51939,201.906799 124.38936,202.012084 124.24251,201.998883 C124.09566,201.985682 123.987598,201.858994 124.001147,201.715918 L125.467061,186.236277 Z" id="Ufo-base" fill="#465197" fill-rule="nonzero" transform="translate(125.000000, 194.000000) rotate(-360.000000) translate(-125.000000, -194.000000) "></path>
                <path d="M124.467061,213.236277 C124.48061,213.093201 124.61064,212.987916 124.75749,213.001117 C124.90434,213.014318 125.012402,213.141006 124.998853,213.284082 L123.532939,228.763723 C123.51939,228.906799 123.38936,229.012084 123.24251,228.998883 C123.09566,228.985682 122.987598,228.858994 123.001147,228.715918 L124.467061,213.236277 Z" id="Ufo-base" fill="#465197" fill-rule="nonzero" transform="translate(124.000000, 221.000000) rotate(-360.000000) translate(-124.000000, -221.000000) "></path>
                <path d="M111.5,33 C108.490951,33 106,31.7339381 106,30 C106,28.2660619 108.490951,27 111.5,27 C114.509049,27 117,28.2660619 117,30 C117,31.7339381 114.509049,33 111.5,33 Z M111.5,32.1818182 C114.121561,32.1818182 116.195122,31.127901 116.195122,30 C116.195122,28.872099 114.121561,27.8181818 111.5,27.8181818 C108.878439,27.8181818 106.804878,28.872099 106.804878,30 C106.804878,31.127901 108.878439,32.1818182 111.5,32.1818182 Z" id="Ufo-base" fill="#FFFFFF" fill-rule="nonzero" transform="translate(111.500000, 30.000000) rotate(-360.000000) translate(-111.500000, -30.000000) "></path>
                <path d="M156.5,33 C153.490951,33 151,31.7339381 151,30 C151,28.2660619 153.490951,27 156.5,27 C159.509049,27 162,28.2660619 162,30 C162,31.7339381 159.509049,33 156.5,33 Z M156.5,32.1818182 C159.121561,32.1818182 161.195122,31.127901 161.195122,30 C161.195122,28.872099 159.121561,27.8181818 156.5,27.8181818 C153.878439,27.8181818 151.804878,28.872099 151.804878,30 C151.804878,31.127901 153.878439,32.1818182 156.5,32.1818182 Z" id="Ufo-base" fill="#FFFFFF" fill-rule="nonzero" transform="translate(156.500000, 30.000000) rotate(-360.000000) translate(-156.500000, -30.000000) "></path>
                <path d="M171.5,28 C168.490951,28 166,26.7339381 166,25 C166,23.2660619 168.490951,22 171.5,22 C174.509049,22 177,23.2660619 177,25 C177,26.7339381 174.509049,28 171.5,28 Z M171.5,27.1818182 C174.121561,27.1818182 176.195122,26.127901 176.195122,25 C176.195122,23.872099 174.121561,22.8181818 171.5,22.8181818 C168.878439,22.8181818 166.804878,23.872099 166.804878,25 C166.804878,26.127901 168.878439,27.1818182 171.5,27.1818182 Z" id="Ufo-base" fill="#FFFFFF" fill-rule="nonzero" transform="translate(171.500000, 25.000000) rotate(-360.000000) translate(-171.500000, -25.000000) "></path>
                <path d="M97.5,28 C94.490951,28 92,26.7339381 92,25 C92,23.2660619 94.490951,22 97.5,22 C100.509049,22 103,23.2660619 103,25 C103,26.7339381 100.509049,28 97.5,28 Z M97.5,27.1818182 C100.121561,27.1818182 102.195122,26.127901 102.195122,25 C102.195122,23.872099 100.121561,22.8181818 97.5,22.8181818 C94.8784386,22.8181818 92.804878,23.872099 92.804878,25 C92.804878,26.127901 94.8784386,27.1818182 97.5,27.1818182 Z" id="Ufo-base" fill="#FFFFFF" fill-rule="nonzero" transform="translate(97.500000, 25.000000) rotate(-360.000000) translate(-97.500000, -25.000000) "></path>
                <path d="M132.5,37 C129.490951,37 127,35.7339381 127,34 C127,32.2660619 129.490951,31 132.5,31 C135.509049,31 138,32.2660619 138,34 C138,35.7339381 135.509049,37 132.5,37 Z M132.5,36.1818182 C135.121561,36.1818182 137.195122,35.127901 137.195122,34 C137.195122,32.872099 135.121561,31.8181818 132.5,31.8181818 C129.878439,31.8181818 127.804878,32.872099 127.804878,34 C127.804878,35.127901 129.878439,36.1818182 132.5,36.1818182 Z" id="Ufo-base" fill="#FFFFFF" fill-rule="nonzero" transform="translate(132.500000, 34.000000) rotate(-360.000000) translate(-132.500000, -34.000000) "></path>
            </g>
        </g>
    </g>
</svg>