<svg width="664" height="504" viewBox="0 0 664 504" fill="none" xmlns="http://www.w3.org/2000/svg">
<path opacity="0.45" d="M331.187 442.478C454.092 442.478 553.726 435.07 553.726 425.93C553.726 416.791 454.092 409.382 331.187 409.382C208.281 409.382 108.647 416.791 108.647 425.93C108.647 435.07 208.281 442.478 331.187 442.478Z" fill="#E6E6E6"/>
<path d="M342.541 72.5928L340.416 119.633C334.224 131.393 332.432 133.342 330.224 133.762V147.84C335.685 149.184 340.532 149.52 343.388 147.84C353.348 141.792 360.22 111.065 360.22 111.065L342.541 72.5928Z" fill="#68E1FD"/>
<path d="M518.335 123.944L151.924 124.85L152.575 394.305L518.986 393.399L518.335 123.944Z" fill="#F2F2F2"/>
<path d="M518.451 124.387H151.907V177.442H518.451V124.387Z" fill="#E6E6E6"/>
<path d="M184.791 158.474C188.458 158.474 191.431 155.466 191.431 151.754C191.431 148.043 188.458 145.034 184.791 145.034C181.124 145.034 178.151 148.043 178.151 151.754C178.151 155.466 181.124 158.474 184.791 158.474Z" fill="#24285B"/>
<path d="M204.545 158.424C208.212 158.424 211.185 155.415 211.185 151.704C211.185 147.993 208.212 144.984 204.545 144.984C200.878 144.984 197.905 147.993 197.905 151.704C197.905 155.415 200.878 158.424 204.545 158.424Z" fill="#68E1FD"/>
<path d="M223.154 158.374C226.821 158.374 229.794 155.365 229.794 151.654C229.794 147.942 226.821 144.934 223.154 144.934C219.487 144.934 216.514 147.942 216.514 151.654C216.514 155.365 219.487 158.374 223.154 158.374Z" fill="#FFD200"/>
<path d="M476.503 305.273H319.417V315.168H476.503V305.273Z" fill="#E6E6E6"/>
<path d="M476.503 331.481H319.417V341.376H476.503V331.481Z" fill="#E6E6E6"/>
<path d="M428.562 357.689H319.417V367.584H428.562V357.689Z" fill="#E6E6E6"/>
<path d="M472.436 196.207H319.417V288.943H472.436V196.207Z" fill="#E6E6E6"/>
<path opacity="0.17" d="M301.805 195.367H185.057V228.698H301.805V195.367Z" fill="#666666"/>
<path d="M301.805 242.575H185.057V275.906H301.805V242.575Z" fill="#E6E6E6"/>
<path opacity="0.17" d="M205.392 271.387C211.938 271.387 217.244 266.017 217.244 259.392C217.244 252.767 211.938 247.397 205.392 247.397C198.846 247.397 193.539 252.767 193.539 259.392C193.539 266.017 198.846 271.387 205.392 271.387Z" fill="#666666"/>
<path opacity="0.17" d="M273.269 251.933H226.175V257.208H273.269V251.933Z" fill="#666666"/>
<path opacity="0.17" d="M255.69 262.483H226.175V267.758H255.69V262.483Z" fill="#666666"/>
<path d="M301.805 289.8H185.057V323.131H301.805V289.8Z" fill="#E6E6E6"/>
<path opacity="0.17" d="M205.392 318.612C211.938 318.612 217.244 313.242 217.244 306.617C217.244 299.992 211.938 294.622 205.392 294.622C198.846 294.622 193.539 299.992 193.539 306.617C193.539 313.242 198.846 318.612 205.392 318.612Z" fill="#666666"/>
<path opacity="0.17" d="M273.269 299.141H226.175V304.416H273.269V299.141Z" fill="#666666"/>
<path opacity="0.17" d="M255.69 309.708H226.175V314.983H255.69V309.708Z" fill="#666666"/>
<path d="M301.805 337.008H185.057V370.339H301.805V337.008Z" fill="#E6E6E6"/>
<path opacity="0.17" d="M205.392 365.82C211.938 365.82 217.244 360.45 217.244 353.825C217.244 347.2 211.938 341.83 205.392 341.83C198.846 341.83 193.539 347.2 193.539 353.825C193.539 360.45 198.846 365.82 205.392 365.82Z" fill="#666666"/>
<path opacity="0.17" d="M273.269 346.366H226.175V351.641H273.269V346.366Z" fill="#666666"/>
<path opacity="0.17" d="M255.69 356.916H226.175V362.191H255.69V356.916Z" fill="#666666"/>
<path opacity="0.08" d="M191.431 394.195C191.996 394.195 178.483 319.922 182.982 309.708C187.48 299.494 198.171 289.548 197.922 281.333C197.673 273.118 229.246 248.858 236.102 228.698L242.244 238.526L306.237 183.826C306.237 183.826 317.143 182.246 320.695 174.233C324.248 166.219 357.498 124.32 357.498 124.32H339.702L319.616 150.864L306.004 145.034L233.313 200.474L229.146 216.77C229.146 216.77 177.155 254.52 159.991 274.462C142.826 294.403 165.718 394.178 165.718 394.178L191.431 394.195Z" fill="black"/>
<path d="M302.577 132.9L224.23 198.589L243.356 221.954L321.703 156.265L302.577 132.9Z" fill="#24285B"/>
<path d="M248.137 209.362C254.096 209.362 258.927 204.473 258.927 198.442C258.927 192.411 254.096 187.522 248.137 187.522C242.178 187.522 237.347 192.411 237.347 198.442C237.347 204.473 242.178 209.362 248.137 209.362Z" fill="#FFD200"/>
<path opacity="0.17" d="M291.432 153.29L258.426 180.963L261.455 184.663L294.461 156.99L291.432 153.29Z" fill="white"/>
<path opacity="0.17" d="M285.164 171.02L264.481 188.361L267.509 192.061L288.192 174.72L285.164 171.02Z" fill="white"/>
<path d="M132.883 334.572L122.043 369.6C120.586 374.347 118.175 378.737 114.961 382.495C111.747 386.254 107.8 389.299 103.368 391.44L87.4322 399.101L88.0796 403.872L111.884 398.664C117.492 396.994 122.693 394.156 127.153 390.331C131.613 386.506 135.233 381.779 137.78 376.454L154.596 341.41L132.883 334.572Z" fill="#F4A28C"/>
<path d="M168.805 344.45L173.885 419.58L169.154 421.243L150.313 350.969L168.805 344.45Z" fill="#F4A28C"/>
<path d="M174.864 420.874C174.864 420.874 175.96 425.326 179.28 426.72C182.6 428.114 180.94 432.953 175.96 429.996C174.41 429.087 172.938 428.047 171.561 426.888C170.266 425.858 168.726 425.191 167.096 424.956C166.792 424.876 166.517 424.71 166.302 424.478C166.088 424.246 165.943 423.958 165.884 423.646C165.22 421.193 170.731 418.874 170.731 418.874L174.864 420.874Z" fill="#68E1FD"/>
<path d="M88.0796 403.822C88.0796 403.822 84.7596 406.409 84.7596 409.802C84.7596 413.196 80.1116 413.616 80.6926 408.122C80.8684 406.42 81.1793 404.734 81.6222 403.082C82.0017 401.568 81.9731 399.978 81.5392 398.479C81.4771 398.185 81.5059 397.88 81.6218 397.603C81.7376 397.326 81.9348 397.093 82.1866 396.934C83.996 395.422 88.0796 399.286 88.0796 399.286V403.822Z" fill="#68E1FD"/>
<path d="M140.386 235.57L142.162 242.794L136.369 245.885L135.356 233.52L140.386 235.57Z" fill="#F4A28C"/>
<path d="M133.995 226.565C134.336 225.917 134.831 225.365 135.436 224.96C136.041 224.555 136.737 224.31 137.459 224.246C138.182 224.183 138.909 224.303 139.574 224.597C140.238 224.89 140.82 225.347 141.266 225.926C143.407 228.648 145.914 232.898 142.544 234.83C137.382 237.787 133.398 231.168 133.398 231.168C133.14 229.608 133.348 228.005 133.995 226.565Z" fill="#F4A28C"/>
<path d="M110.224 258.233C110.224 258.233 85.324 297.662 90.304 303.475C106.14 321.955 141.299 280.392 141.299 280.392L110.224 258.233Z" fill="#F4A28C"/>
<path d="M166.598 252.336C159.446 247.052 150.856 244.131 142.003 243.972C133.149 243.812 124.463 246.422 117.13 251.446C110.606 255.931 105.51 262.651 107.883 272.362C113.278 295.159 130.542 310.178 131.123 330.238L171.976 327.466V301.644C171.967 299.204 172.457 296.789 173.417 294.55C174.377 292.312 175.786 290.3 177.554 288.641C181.106 285.281 184.658 279.888 182.235 272.462C180.027 265.843 174.449 258.166 166.598 252.336Z" fill="#68E1FD"/>
<path d="M137.232 231.168C137.232 231.168 136.07 230.009 135.373 231.47C134.676 232.932 136.85 233.839 137.564 233.15C138.278 232.462 137.232 231.168 137.232 231.168Z" fill="#F4A28C"/>
<path opacity="0.08" d="M146.379 263.088C146.379 263.088 137.548 280.157 147.79 296.806C158.032 313.454 138.627 329.717 138.627 329.717L171.926 327.466V312.749L146.379 263.088Z" fill="black"/>
<path d="M129.364 252.857C130.144 249.766 133.779 244.154 128.667 234.041C127.904 232.371 127.517 230.551 127.534 228.712C127.552 226.873 127.972 225.061 128.766 223.406C133.63 215.107 141.465 217.946 140.536 222.6C139.606 227.254 138.876 229.471 138.876 229.471C138.876 229.471 153.716 240.24 151.541 248.17C149.699 255.226 126.06 265.726 129.364 252.857Z" fill="#24285B"/>
<path d="M129.281 319.687H171.926L178.716 379.411L115.453 376.522L129.281 319.687Z" fill="#24285B"/>
<path d="M143.192 273.571C142.546 272.104 142.194 270.523 142.157 268.917C142.12 267.312 142.399 265.715 142.976 264.219C143.554 262.724 144.419 261.359 145.522 260.205C146.624 259.05 147.943 258.129 149.4 257.494C152.295 256.285 155.274 255.297 158.314 254.537C176.475 249.833 208.015 237.048 226.54 212.419C226.54 212.419 231.885 202.994 239.405 205.498C246.925 208.001 241.696 216.854 234.126 214.637C234.126 214.637 211.501 273 159.775 282.61C156.408 283.203 152.941 282.635 149.931 280.996C146.92 279.357 144.541 276.742 143.175 273.571H143.192Z" fill="#F4A28C"/>
<path d="M324.049 57.5568L344.699 65.9232L344.45 81.3456L326.456 66.528L324.049 57.5568Z" fill="#F4A28C"/>
<path opacity="0.31" d="M329.178 68.964C329.629 67.4407 329.629 65.8169 329.178 64.2936C331.676 66.3522 333.308 69.2949 333.743 72.5256L329.178 68.964Z" fill="#CE8172"/>
<path d="M317.425 65.2176C320.155 67.864 323.226 70.1245 326.555 71.9376C326.959 72.1389 327.399 72.2551 327.848 72.2792C328.297 72.3032 328.746 72.2346 329.169 72.0775C329.591 71.9204 329.977 71.678 330.304 71.3652C330.631 71.0523 330.892 70.6755 331.07 70.2576C331.747 68.9606 332.038 67.4931 331.909 66.0322C331.779 64.5714 331.234 63.1798 330.34 62.0256L327.02 56.6664C326.24 55.6626 325.169 54.9304 323.958 54.572C322.747 54.2136 321.455 54.2469 320.264 54.6672C315.666 55.86 314.288 62.4624 317.425 65.2176Z" fill="#F4A28C"/>
<path d="M320.662 68.04L321.525 71.1816C321.574 71.3605 321.667 71.5241 321.794 71.6575C321.922 71.7908 322.081 71.8896 322.256 71.9448C322.431 72 322.617 72.0098 322.797 71.9733C322.976 71.9368 323.144 71.8552 323.285 71.736L325.277 70.056L320.662 68.04Z" fill="#F4A28C"/>
<path d="M332.797 60.564L326.489 53.76C326.489 53.76 328.481 48.8712 324.829 48.384C321.177 47.8968 321.957 50.8704 318.654 48.8712C315.35 46.872 313.01 49.1232 313.674 52.2312C314.338 55.3392 312.312 52.7856 310.503 54.936C308.694 57.0864 309.324 58.3968 311.084 59.5896C312.844 60.7824 308.81 62.9496 310.52 65.3016C312.229 67.6536 314.338 69.1488 318.371 63.4536C322.405 57.7584 324.547 65.016 332.797 60.564Z" fill="#FFD200"/>
<path d="M326.472 63.1848C326.472 63.1848 324.464 61.5048 325.841 60.0768C327.219 58.6488 330.141 61.0848 328.746 63.4368L326.472 63.1848Z" fill="#F4A28C"/>
<path opacity="0.08" d="M398.682 128.201C398.682 128.201 389.934 151.183 399.861 162.725C409.788 174.266 431.965 185.422 431.965 185.422C431.965 185.422 434.804 198.862 441.826 186.648L440.464 180.029L419.698 164.035L406.418 147.05L414.983 128.57L398.682 128.201Z" fill="black"/>
<path d="M427.135 99.5736L415 115.298L406.883 126C402.165 126.718 397.39 126.983 392.623 126.79C378.546 126.286 357.863 121.75 348.849 101.388C346.178 95.0561 344.692 88.2772 344.467 81.396L344.699 65.9904C344.699 65.9904 367.441 49.1904 387.859 63.2016C408.277 77.2128 427.135 99.5736 427.135 99.5736Z" fill="#68E1FD"/>
<path d="M427.135 99.5736C427.135 99.5736 449.86 114.929 437.676 125.496C431.48 131.083 425.842 137.273 420.843 143.976C419.58 145.635 418.953 147.701 419.078 149.792C419.203 151.883 420.072 153.857 421.524 155.35L438.423 172.771L435.484 180.751L410.584 164.774C406.663 162.251 403.691 158.47 402.144 154.035C400.598 149.601 400.565 144.769 402.052 140.314L406.883 126L427.135 99.5736Z" fill="#24285B"/>
<path opacity="0.08" d="M415 115.298L406.883 126C406.883 126 400.956 126.403 392.623 126.79C378.546 126.286 357.863 121.75 348.849 101.388C356.153 91.308 365.764 81.7992 370.28 80.7576C370.28 80.7576 378.746 104.933 391.395 108.948C403.745 112.879 414.535 115.248 415.05 115.366L415 115.298Z" fill="black"/>
<path d="M371.01 85.0248C372.67 70.8792 354.626 63.756 345.977 74.9448C343.401 78.2639 341.474 82.05 340.3 86.1C335.884 101.22 308.345 162.809 308.345 162.809L317.691 167.429C317.691 167.429 352.7 123.144 366.329 98.7672C368.773 94.5452 370.364 89.874 371.01 85.0248Z" fill="#68E1FD"/>
<path opacity="0.36" d="M371.01 85.0248C372.67 70.8792 354.626 63.756 345.977 74.9448C343.401 78.2639 341.474 82.05 340.3 86.1C335.884 101.22 308.345 162.809 308.345 162.809L317.691 167.429C317.691 167.429 352.7 123.144 366.329 98.7672C368.773 94.5452 370.364 89.874 371.01 85.0248Z" fill="white"/>
<path d="M309.822 163.565C309.822 163.565 299.514 169.445 305.307 173.326C311.101 177.206 317.624 167.429 317.624 167.429L309.822 163.565Z" fill="#F4A28C"/>
<path d="M436.182 178.769C436.182 178.769 440.979 183.809 439.286 187.068C439.286 187.068 442.606 190.646 445.195 185.942C447.785 181.238 443.27 175.862 443.27 175.862L437.908 174.014L436.182 178.769Z" fill="#68E1FD"/>
<path opacity="0.08" d="M479.292 346.634C475.972 355.348 472.978 364.174 470.311 373.111C469.78 374.892 467.506 385.879 465.597 393.154H487.725C489.203 376.218 495.173 360 505.005 346.214C505.221 362.443 505.819 379.814 514.866 393.154H524.975C527.047 390.668 528.28 387.578 528.494 384.334C528.608 379.885 528.088 375.444 526.95 371.146C524.211 357.775 522.798 344.161 522.734 330.506C522.734 313.32 524.709 296.1 523.249 278.964C522.369 268.8 519.929 257.981 512.243 251.278C511.921 250.987 511.577 250.723 511.214 250.488C511.977 244.44 512.359 238.325 512.708 232.26L513.77 214.586C514.135 208.589 510.799 198.828 503.959 205.565C498.382 211.042 500.324 217.325 498.979 223.86C496.855 234.074 484.355 232.747 476.47 232.394C451.57 231.269 426.404 231.907 401.405 231.907H342.657V341.897H481.217C480.553 343.476 479.889 345.055 479.292 346.634Z" fill="black"/>
<path d="M473.498 415.918C473.498 415.918 469.83 419.58 465.862 417.85C461.895 416.119 459.007 419.53 461.928 422.436C464.85 425.342 475.905 425.443 475.905 425.443L479.142 417.866L473.498 415.918Z" fill="#68E1FD"/>
<path d="M535.101 414.221C535.101 414.221 536.894 419.261 533.906 422.486C530.918 425.712 532.777 429.878 536.396 428.098C540.015 426.317 544.281 415.43 544.281 415.43L538.919 409.382L535.101 414.221Z" fill="#68E1FD"/>
<path d="M544.912 320.426C544.912 320.426 548.779 336.722 542.056 344.736C535.333 352.75 525.041 390.718 542.056 409.702L535.333 416.422C535.333 416.422 505.868 400.394 514.268 342.602L493.219 320.41L544.912 320.426Z" fill="#24285B"/>
<path d="M493.219 320.426L471.639 416.438L482.446 418.118C482.446 418.118 504.026 352.313 518.318 338.806L493.219 320.426Z" fill="#24285B"/>
<path d="M488.206 236.006C488.206 236.006 465.663 245.734 469.116 281.366L491.128 279.468L488.206 236.006Z" fill="#68E1FD"/>
<path opacity="0.36" d="M488.206 236.006C488.206 236.006 465.663 245.734 469.116 281.366L491.128 279.468L488.206 236.006Z" fill="white"/>
<path d="M519.862 209.328L518.999 232.478L506.433 231.084L512.093 214.805L519.862 209.328Z" fill="#F4A28C"/>
<path opacity="0.31" d="M510.716 218.4C512.34 218.297 513.899 217.713 515.198 216.72C514.085 219.881 511.832 222.498 508.89 224.045L510.716 218.4Z" fill="#CE8172"/>
<path d="M517.92 227.791L510.583 229.337C510.583 229.337 476.984 232.999 475.623 252.185C474.262 271.37 493.236 320.426 493.236 320.426H544.148C544.148 320.426 584.901 222.718 517.92 227.791Z" fill="#68E1FD"/>
<path d="M507.462 205.934C506.595 209.789 506.248 213.745 506.433 217.694C506.537 218.632 507.005 219.489 507.733 220.078C508.461 220.667 509.391 220.94 510.317 220.836C511.811 220.75 513.249 220.229 514.457 219.335C515.664 218.44 516.59 217.211 517.123 215.796L520.028 209.966C520.488 208.738 520.561 207.395 520.237 206.123C519.913 204.851 519.208 203.711 518.219 202.86C514.7 199.45 508.192 201.684 507.462 205.934Z" fill="#F4A28C"/>
<path opacity="0.09" d="M532.86 236.729C532.86 236.729 515.513 246.96 519.58 270.127C523.647 293.294 530.337 301.258 515.978 298.032C501.619 294.806 495.709 287.498 495.709 287.498C495.709 287.498 485.367 296.033 495.709 302.501C506.051 308.969 520.078 308.969 522.269 320.426H544.115C544.115 320.426 545.874 315.386 548.215 309.086C550.556 302.786 532.86 236.729 532.86 236.729Z" fill="black"/>
<path d="M509.139 206.472C511.263 206.858 513.424 206.993 515.579 206.875C514.833 207.74 514.352 208.806 514.196 209.943C514.04 211.08 514.215 212.238 514.7 213.276C515.152 214.291 515.94 215.115 516.928 215.605C517.915 216.096 519.041 216.223 520.111 215.964L521.24 206.959C521.447 205.676 521.304 204.359 520.828 203.152C520.351 201.944 519.558 200.891 518.534 200.105C517.654 199.416 516.734 198.783 515.779 198.206C514.431 197.446 512.903 197.074 511.36 197.13C509.818 197.186 508.321 197.669 507.03 198.526C506.067 199.357 505.465 200.539 505.357 201.815C505.248 203.092 505.641 204.361 506.449 205.346C507.215 205.984 508.151 206.376 509.139 206.472Z" fill="#24285B"/>
<path d="M513.986 212.974C513.986 212.974 514.417 210.269 516.393 210.773C518.368 211.277 517.771 215.141 514.998 215.124L513.986 212.974Z" fill="#F4A28C"/>
<path d="M500.075 221.222H352.418V330.658H500.075V221.222Z" fill="#FFD200"/>
<path opacity="0.43" d="M487.891 231.42H364.619V320.46H487.891V231.42Z" fill="white"/>
<path opacity="0.49" d="M366.03 320.46L399.579 257.678L428.064 306.365L453.695 275.94L487.874 320.46H366.03Z" fill="white"/>
<path d="M430.355 269.69C435.819 269.69 440.249 265.208 440.249 259.678C440.249 254.148 435.819 249.665 430.355 249.665C424.891 249.665 420.461 254.148 420.461 259.678C420.461 265.208 424.891 269.69 430.355 269.69Z" fill="white"/>
<path d="M559.785 277.67C559.785 277.67 562.657 307.423 548.165 309.086C537.276 310.33 519.812 304.046 509.139 301.039C504.524 299.695 502.283 299.074 498.73 295.798C494.481 291.866 488.571 289.078 493.153 285.331C501.303 278.611 507.097 290.052 507.097 290.052C513.902 292.057 520.917 293.241 527.996 293.58C529.325 293.618 530.644 293.341 531.849 292.772C533.053 292.203 534.11 291.356 534.934 290.3C535.758 289.245 536.327 288.008 536.595 286.691C536.863 285.373 536.823 284.01 536.479 282.71L533.79 272.462C533.79 272.462 552.929 254.318 559.785 277.67Z" fill="#F4A28C"/>
<path d="M506.698 210.336L504.408 212.755C504.278 212.894 504.184 213.063 504.136 213.247C504.087 213.432 504.085 213.626 504.13 213.811C504.175 213.997 504.264 214.168 504.391 214.309C504.518 214.45 504.678 214.557 504.856 214.62L507.429 215.494L506.698 210.336Z" fill="#F4A28C"/>
<path d="M544.795 234.41C552.249 240.24 563.587 253.109 563.371 277.435L532.528 279.434C532.528 279.434 523.614 252.722 532.926 236.729C533.504 235.729 534.285 234.865 535.219 234.195C536.153 233.525 537.218 233.065 538.341 232.846C539.465 232.626 540.622 232.652 541.735 232.922C542.849 233.192 543.892 233.699 544.795 234.41Z" fill="#68E1FD"/>
<path opacity="0.36" d="M544.795 234.41C552.249 240.24 563.587 253.109 563.371 277.435L532.528 279.434C532.528 279.434 523.614 252.722 532.926 236.729C533.504 235.729 534.285 234.865 535.219 234.195C536.153 233.525 537.218 233.065 538.341 232.846C539.465 232.626 540.622 232.652 541.735 232.922C542.849 233.192 543.892 233.699 544.795 234.41Z" fill="white"/>
<path d="M241.381 124.354H287.861V116.911H241.381V124.354Z" fill="#C9C9C9"/>
<path d="M241.381 116.878H276.539V109.435H241.381V116.878Z" fill="#E6E6E6"/>
<path opacity="0.58" d="M245.331 107.722C245.331 107.722 258.313 104.126 261.151 91.8792C261.151 91.8792 241.015 87.7632 240.434 108.797L245.331 107.722Z" fill="#68E1FD"/>
<path opacity="0.73" d="M243.738 106.411C243.738 106.411 252.801 91.8792 244.817 78.3048C244.817 78.3048 229.512 88.1496 236.318 106.445L243.738 106.411Z" fill="#68E1FD"/>
<path d="M241.397 106.428C241.397 106.428 236.6 91.0896 222.091 88.1832C222.091 88.1832 219.386 98.1288 231.487 106.462L241.397 106.428Z" fill="#68E1FD"/>
<path d="M250.809 106.075L248.187 124.32L231.587 124.387L229.146 106.159L250.809 106.075Z" fill="#24285B"/>
</svg>
